G75*
%MOIN*%
%OFA0B0*%
%FSLAX24Y24*%
%IPPOS*%
%LPD*%
%AMOC8*
5,1,8,0,0,1.08239X$1,22.5*
%
%ADD10C,0.0740*%
%ADD11C,0.0520*%
%ADD12C,0.0600*%
%ADD13OC8,0.0520*%
%ADD14C,0.0700*%
%ADD15OC8,0.0630*%
%ADD16C,0.0630*%
%ADD17C,0.0240*%
%ADD18C,0.0160*%
%ADD19C,0.0120*%
%ADD20C,0.0080*%
D10*
X011967Y013467D03*
X011967Y014467D03*
X015967Y013967D03*
X015967Y014967D03*
X015967Y012967D03*
X015967Y011967D03*
X015967Y010967D03*
X015967Y009967D03*
X015967Y008967D03*
X015967Y007967D03*
X015967Y006967D03*
X015967Y005967D03*
X015967Y004967D03*
X015967Y003967D03*
X016467Y002967D03*
X017467Y002967D03*
X018467Y002967D03*
X019467Y002967D03*
X020467Y002967D03*
X021467Y002967D03*
X021967Y003967D03*
X021967Y004967D03*
X021967Y005967D03*
X021967Y006967D03*
X021967Y007967D03*
X021967Y008967D03*
X021967Y009967D03*
X021967Y010967D03*
X021967Y011967D03*
X021967Y012967D03*
X021967Y013967D03*
X021967Y014967D03*
X017092Y012530D03*
X017092Y011530D03*
X017092Y008405D03*
X017092Y007405D03*
X028967Y014467D03*
X028967Y015467D03*
X028967Y016467D03*
X011467Y024967D03*
X011467Y025967D03*
D11*
X019707Y023967D02*
X020227Y023967D01*
X020227Y022967D02*
X019707Y022967D01*
X019707Y021967D02*
X020227Y021967D01*
X020227Y020967D02*
X019707Y020967D01*
X019707Y019967D02*
X020227Y019967D01*
X020227Y018967D02*
X019707Y018967D01*
X019707Y017967D02*
X020227Y017967D01*
X020227Y016467D02*
X019707Y016467D01*
X017227Y016467D02*
X016707Y016467D01*
X022707Y017967D02*
X023227Y017967D01*
X023227Y018967D02*
X022707Y018967D01*
X022707Y019967D02*
X023227Y019967D01*
X023227Y020967D02*
X022707Y020967D01*
X022707Y021967D02*
X023227Y021967D01*
X023227Y022967D02*
X022707Y022967D01*
X022707Y023967D02*
X023227Y023967D01*
D12*
X022967Y027567D02*
X022967Y028167D01*
X021967Y028167D02*
X021967Y027567D01*
X020967Y027567D02*
X020967Y028167D01*
X019967Y028167D02*
X019967Y027567D01*
X018467Y027567D02*
X018467Y028167D01*
X017467Y028167D02*
X017467Y027567D01*
X016467Y027567D02*
X016467Y028167D01*
X015467Y028167D02*
X015467Y027567D01*
X014467Y027567D02*
X014467Y028167D01*
X013467Y028167D02*
X013467Y027567D01*
X012467Y027567D02*
X012467Y028167D01*
X011467Y028167D02*
X011467Y027567D01*
X011667Y023467D02*
X012267Y023467D01*
X012267Y022467D02*
X011667Y022467D01*
X011667Y021467D02*
X012267Y021467D01*
X012267Y020467D02*
X011667Y020467D01*
X011667Y019467D02*
X012267Y019467D01*
X012267Y018467D02*
X011667Y018467D01*
X011667Y017467D02*
X012267Y017467D01*
X012267Y016467D02*
X011667Y016467D01*
X011917Y007967D02*
X012517Y007967D01*
X012517Y006967D02*
X011917Y006967D01*
X011917Y005967D02*
X012517Y005967D01*
X024467Y002767D02*
X024467Y002167D01*
X025467Y002167D02*
X025467Y002767D01*
X026467Y002767D02*
X026467Y002167D01*
X027467Y002167D02*
X027467Y002767D01*
X028467Y002767D02*
X028467Y002167D01*
X029467Y002167D02*
X029467Y002767D01*
X025967Y027567D02*
X025967Y028167D01*
X024967Y028167D02*
X024967Y027567D01*
X023967Y027567D02*
X023967Y028167D01*
D13*
X023467Y026467D03*
X023467Y025467D03*
X024967Y026467D03*
X025967Y026467D03*
X027967Y024967D03*
X026967Y023967D03*
X027967Y022967D03*
X025967Y022467D03*
X024967Y022467D03*
X024717Y021467D03*
X025467Y017967D03*
X024717Y017467D03*
X023467Y016967D03*
X026717Y015967D03*
X027467Y015467D03*
X027467Y016467D03*
X025467Y013967D03*
X023467Y012967D03*
X014967Y008467D03*
X014967Y007467D03*
X014967Y005467D03*
X014967Y004467D03*
X013967Y024967D03*
X012967Y024967D03*
X012967Y025967D03*
X016967Y025967D03*
X019467Y025467D03*
X019467Y026467D03*
D14*
X027967Y021247D03*
X027967Y018688D03*
X019717Y011717D03*
X019967Y008967D03*
D15*
X012967Y010967D03*
D16*
X011967Y010967D03*
D17*
X014467Y013467D02*
X015467Y012467D01*
X015967Y012967D02*
X015217Y013717D01*
X015217Y023217D01*
X019867Y027867D01*
X019967Y027867D01*
X021967Y027867D02*
X021967Y026467D01*
X020217Y024717D01*
X019717Y024717D01*
X015967Y020967D01*
X015967Y014967D01*
X014467Y013467D02*
X014467Y023467D01*
X014967Y023967D01*
X014967Y025467D01*
X015967Y026467D01*
X016467Y026467D01*
X017467Y027467D01*
X017467Y027867D01*
X021467Y023967D02*
X021467Y021967D01*
X020467Y020967D01*
X019967Y020967D01*
X019967Y019967D02*
X020467Y019967D01*
X020967Y019467D01*
X020967Y017467D01*
X019967Y016467D01*
X020467Y015467D02*
X022967Y017967D01*
X023217Y017467D02*
X022717Y016967D01*
X022717Y016717D01*
X020967Y014967D01*
X020967Y010967D01*
X019967Y009967D01*
X015967Y009967D01*
X015967Y010967D02*
X016467Y010967D01*
X016967Y010467D01*
X019467Y010467D01*
X020467Y011467D01*
X020467Y015467D01*
X019967Y017967D02*
X019967Y018967D01*
X023217Y017467D02*
X023467Y017467D01*
X023967Y017967D01*
X023967Y021967D01*
X022967Y022967D01*
X021467Y023967D02*
X022217Y024717D01*
X024217Y024717D01*
X024967Y025467D01*
X024967Y026467D01*
X025467Y026967D02*
X025467Y020717D01*
X026217Y019967D01*
X026217Y013967D01*
X024217Y011967D01*
X021967Y011967D01*
X021967Y010967D02*
X027467Y010967D01*
X029967Y013467D01*
X029967Y027467D01*
X028717Y028717D01*
X024217Y028717D01*
X023967Y028467D01*
X023967Y027867D01*
X024967Y027867D02*
X024967Y027467D01*
X025467Y026967D01*
X012967Y025967D02*
X011467Y025967D01*
X011967Y016467D02*
X011967Y015967D01*
X011467Y015467D01*
X016467Y012467D02*
X017030Y012467D01*
X017092Y012530D01*
X021967Y012967D02*
X023467Y012967D01*
X014967Y007467D02*
X013467Y007467D01*
X012967Y007967D01*
X012217Y007967D01*
X012217Y005967D02*
X012967Y005967D01*
X014467Y004467D01*
X014967Y004467D01*
X014967Y002467D01*
X015467Y001967D01*
X022467Y001967D01*
X024467Y003967D01*
X027467Y003967D01*
X028467Y002967D01*
X028467Y002467D01*
D18*
X012467Y001467D02*
X010967Y002967D01*
X010967Y014967D01*
X011467Y015467D01*
X011685Y015232D02*
X014147Y015232D01*
X014147Y015074D02*
X011470Y015074D01*
X011552Y015156D02*
X011649Y015196D01*
X012239Y015786D01*
X012287Y015904D01*
X012287Y015967D01*
X012367Y015967D01*
X012551Y016044D01*
X012691Y016184D01*
X012767Y016368D01*
X012767Y016567D01*
X012691Y016751D01*
X012551Y016891D01*
X012367Y016967D01*
X011568Y016967D01*
X011384Y016891D01*
X011244Y016751D01*
X011167Y016567D01*
X011167Y016368D01*
X011244Y016184D01*
X011384Y016044D01*
X011530Y015983D01*
X011196Y015649D01*
X011156Y015552D01*
X010947Y015343D01*
X010947Y024733D01*
X010984Y024645D01*
X011145Y024484D01*
X011354Y024397D01*
X011581Y024397D01*
X011790Y024484D01*
X011951Y024645D01*
X012037Y024854D01*
X012037Y025081D01*
X011951Y025290D01*
X011790Y025451D01*
X011750Y025467D01*
X011790Y025484D01*
X011951Y025645D01*
X011952Y025647D01*
X012637Y025647D01*
X012777Y025507D01*
X013158Y025507D01*
X013427Y025777D01*
X013427Y026158D01*
X013158Y026427D01*
X012777Y026427D01*
X012637Y026287D01*
X011952Y026287D01*
X011951Y026290D01*
X011790Y026451D01*
X011581Y026537D01*
X011354Y026537D01*
X011145Y026451D01*
X010984Y026290D01*
X010947Y026201D01*
X010947Y028834D01*
X014688Y028834D01*
X014521Y028667D01*
X014368Y028667D01*
X014184Y028591D01*
X014044Y028451D01*
X013967Y028267D01*
X013891Y028451D01*
X013751Y028591D01*
X013567Y028667D01*
X013368Y028667D01*
X013184Y028591D01*
X013044Y028451D01*
X012967Y028267D01*
X012891Y028451D01*
X012751Y028591D01*
X012567Y028667D01*
X012368Y028667D01*
X012184Y028591D01*
X012044Y028451D01*
X011967Y028267D01*
X011891Y028451D01*
X011751Y028591D01*
X011567Y028667D01*
X011368Y028667D01*
X011184Y028591D01*
X011044Y028451D01*
X010967Y028267D01*
X010967Y027468D01*
X011044Y027284D01*
X011184Y027144D01*
X011368Y027067D01*
X011567Y027067D01*
X011751Y027144D01*
X011891Y027284D01*
X011967Y027468D01*
X011967Y028267D01*
X011967Y027468D01*
X012044Y027284D01*
X012184Y027144D01*
X012368Y027067D01*
X012567Y027067D01*
X012751Y027144D01*
X012891Y027284D01*
X012967Y027468D01*
X012967Y028267D01*
X012967Y027468D01*
X013044Y027284D01*
X013184Y027144D01*
X013368Y027067D01*
X013567Y027067D01*
X013751Y027144D01*
X013891Y027284D01*
X013967Y027468D01*
X013967Y028267D01*
X013967Y027468D01*
X014044Y027284D01*
X014184Y027144D01*
X014368Y027067D01*
X014567Y027067D01*
X014751Y027144D01*
X014891Y027284D01*
X014967Y027468D01*
X014967Y028267D01*
X014951Y028305D01*
X015006Y028360D01*
X014967Y028267D01*
X014967Y027468D01*
X015044Y027284D01*
X015184Y027144D01*
X015368Y027067D01*
X015567Y027067D01*
X015751Y027144D01*
X015891Y027284D01*
X015967Y027468D01*
X015967Y028267D01*
X015897Y028437D01*
X016038Y028437D01*
X015967Y028267D01*
X015967Y027468D01*
X016044Y027284D01*
X016184Y027144D01*
X016368Y027067D01*
X016567Y027067D01*
X016649Y027101D01*
X016335Y026787D01*
X015904Y026787D01*
X015786Y026739D01*
X015696Y026649D01*
X014696Y025649D01*
X014647Y025531D01*
X014647Y024100D01*
X014286Y023739D01*
X014196Y023649D01*
X014147Y023531D01*
X014147Y013404D01*
X014196Y013286D01*
X015286Y012196D01*
X015404Y012147D01*
X015425Y012147D01*
X015397Y012081D01*
X015397Y011854D01*
X015484Y011645D01*
X015645Y011484D01*
X015685Y011467D01*
X015645Y011451D01*
X015484Y011290D01*
X015397Y011081D01*
X015397Y010854D01*
X015484Y010645D01*
X015645Y010484D01*
X015685Y010467D01*
X015645Y010451D01*
X015484Y010290D01*
X015397Y010081D01*
X015397Y009854D01*
X015484Y009645D01*
X015645Y009484D01*
X015685Y009467D01*
X015645Y009451D01*
X015484Y009290D01*
X015397Y009081D01*
X015397Y008854D01*
X015484Y008645D01*
X015645Y008484D01*
X015685Y008467D01*
X015645Y008451D01*
X015484Y008290D01*
X015397Y008081D01*
X015397Y007854D01*
X015484Y007645D01*
X015645Y007484D01*
X015685Y007467D01*
X015645Y007451D01*
X015484Y007290D01*
X015397Y007081D01*
X015397Y006854D01*
X015484Y006645D01*
X015645Y006484D01*
X015685Y006467D01*
X015645Y006451D01*
X015484Y006290D01*
X015397Y006081D01*
X015397Y005854D01*
X015484Y005645D01*
X015645Y005484D01*
X015714Y005455D01*
X015679Y005438D01*
X015609Y005387D01*
X015548Y005326D01*
X015497Y005256D01*
X015458Y005179D01*
X015431Y005096D01*
X015417Y005011D01*
X015417Y004987D01*
X015947Y004987D01*
X015947Y004947D01*
X015417Y004947D01*
X015417Y004924D01*
X015431Y004839D01*
X015458Y004756D01*
X015497Y004679D01*
X015548Y004609D01*
X015609Y004548D01*
X015679Y004497D01*
X015714Y004479D01*
X015645Y004451D01*
X015484Y004290D01*
X015397Y004081D01*
X015397Y003854D01*
X015484Y003645D01*
X015645Y003484D01*
X015854Y003397D01*
X016081Y003397D01*
X016099Y003405D01*
X015984Y003290D01*
X015897Y003081D01*
X015897Y002854D01*
X015984Y002645D01*
X016145Y002484D01*
X016354Y002397D01*
X016581Y002397D01*
X016790Y002484D01*
X016951Y002645D01*
X016967Y002685D01*
X016984Y002645D01*
X017145Y002484D01*
X017354Y002397D01*
X017581Y002397D01*
X017790Y002484D01*
X017951Y002645D01*
X017967Y002685D01*
X017984Y002645D01*
X018145Y002484D01*
X018354Y002397D01*
X018581Y002397D01*
X018790Y002484D01*
X018951Y002645D01*
X018967Y002685D01*
X018984Y002645D01*
X019145Y002484D01*
X019354Y002397D01*
X019581Y002397D01*
X019790Y002484D01*
X019951Y002645D01*
X019967Y002685D01*
X019984Y002645D01*
X020145Y002484D01*
X020354Y002397D01*
X020581Y002397D01*
X020790Y002484D01*
X020951Y002645D01*
X020967Y002685D01*
X020984Y002645D01*
X021145Y002484D01*
X021354Y002397D01*
X021581Y002397D01*
X021790Y002484D01*
X021951Y002645D01*
X022037Y002854D01*
X022037Y003081D01*
X021951Y003290D01*
X021836Y003405D01*
X021854Y003397D01*
X022081Y003397D01*
X022290Y003484D01*
X022451Y003645D01*
X022537Y003854D01*
X022537Y004081D01*
X022451Y004290D01*
X022290Y004451D01*
X022250Y004467D01*
X022290Y004484D01*
X022451Y004645D01*
X022537Y004854D01*
X022537Y005081D01*
X022451Y005290D01*
X022290Y005451D01*
X022250Y005467D01*
X022290Y005484D01*
X022451Y005645D01*
X022537Y005854D01*
X022537Y006081D01*
X022451Y006290D01*
X022290Y006451D01*
X022221Y006479D01*
X022256Y006497D01*
X022326Y006548D01*
X022387Y006609D01*
X022438Y006679D01*
X022477Y006756D01*
X022504Y006839D01*
X022517Y006924D01*
X022517Y006947D01*
X021987Y006947D01*
X021987Y006987D01*
X022517Y006987D01*
X022517Y007011D01*
X022504Y007096D01*
X022477Y007179D01*
X022438Y007256D01*
X022387Y007326D01*
X022326Y007387D01*
X022256Y007438D01*
X022221Y007455D01*
X022290Y007484D01*
X022451Y007645D01*
X022468Y007687D01*
X024351Y007687D01*
X028687Y003351D01*
X028687Y003217D01*
X028657Y003230D01*
X028649Y003239D01*
X027649Y004239D01*
X027531Y004287D01*
X024404Y004287D01*
X024286Y004239D01*
X024196Y004149D01*
X022335Y002287D01*
X015600Y002287D01*
X015287Y002600D01*
X015287Y004137D01*
X015427Y004277D01*
X015427Y004658D01*
X015158Y004927D01*
X014777Y004927D01*
X014637Y004787D01*
X014600Y004787D01*
X013149Y006239D01*
X013031Y006287D01*
X012905Y006287D01*
X012801Y006391D01*
X012617Y006467D01*
X011818Y006467D01*
X011634Y006391D01*
X011494Y006251D01*
X011417Y006067D01*
X011417Y005868D01*
X011494Y005684D01*
X011634Y005544D01*
X011818Y005467D01*
X012617Y005467D01*
X012801Y005544D01*
X012870Y005613D01*
X014196Y004286D01*
X014286Y004196D01*
X014404Y004147D01*
X014637Y004147D01*
X014647Y004137D01*
X014647Y002404D01*
X014696Y002286D01*
X014786Y002196D01*
X015196Y001786D01*
X015235Y001747D01*
X012583Y001747D01*
X012235Y002096D01*
X012461Y001965D01*
X012834Y001865D01*
X013219Y001865D01*
X013592Y001965D01*
X013926Y002158D01*
X014198Y002431D01*
X014391Y002764D01*
X014491Y003137D01*
X014491Y003522D01*
X014391Y003895D01*
X014198Y004229D01*
X013926Y004501D01*
X013592Y004694D01*
X013219Y004794D01*
X012834Y004794D01*
X012461Y004694D01*
X012127Y004501D01*
X011855Y004229D01*
X011662Y003895D01*
X011562Y003522D01*
X011562Y003137D01*
X011662Y002764D01*
X011793Y002538D01*
X011247Y003083D01*
X011247Y014851D01*
X011552Y015156D01*
X011679Y014938D02*
X011609Y014887D01*
X011548Y014826D01*
X011497Y014756D01*
X011458Y014679D01*
X011431Y014596D01*
X011417Y014511D01*
X011417Y014487D01*
X011947Y014487D01*
X011947Y014447D01*
X011417Y014447D01*
X011417Y014424D01*
X011431Y014339D01*
X011458Y014256D01*
X011497Y014179D01*
X011548Y014109D01*
X011609Y014048D01*
X011679Y013997D01*
X011714Y013979D01*
X011645Y013951D01*
X011484Y013790D01*
X011397Y013581D01*
X011397Y013354D01*
X011484Y013145D01*
X011645Y012984D01*
X011854Y012897D01*
X012081Y012897D01*
X012290Y012984D01*
X012451Y013145D01*
X012537Y013354D01*
X012537Y013581D01*
X012451Y013790D01*
X012290Y013951D01*
X012221Y013979D01*
X012256Y013997D01*
X012326Y014048D01*
X012387Y014109D01*
X012438Y014179D01*
X012477Y014256D01*
X012504Y014339D01*
X012517Y014424D01*
X012517Y014447D01*
X011987Y014447D01*
X011987Y014487D01*
X012517Y014487D01*
X012517Y014511D01*
X012504Y014596D01*
X012477Y014679D01*
X012438Y014756D01*
X012387Y014826D01*
X012326Y014887D01*
X012256Y014938D01*
X012179Y014977D01*
X012096Y015004D01*
X012011Y015017D01*
X011987Y015017D01*
X011987Y014487D01*
X011947Y014487D01*
X011947Y015017D01*
X011924Y015017D01*
X011839Y015004D01*
X011756Y014977D01*
X011679Y014938D01*
X011648Y014915D02*
X011311Y014915D01*
X011247Y014757D02*
X011498Y014757D01*
X011432Y014598D02*
X011247Y014598D01*
X011247Y014440D02*
X011417Y014440D01*
X011450Y014281D02*
X011247Y014281D01*
X011247Y014123D02*
X011538Y014123D01*
X011678Y013964D02*
X011247Y013964D01*
X011247Y013806D02*
X011500Y013806D01*
X011425Y013647D02*
X011247Y013647D01*
X011247Y013489D02*
X011397Y013489D01*
X011407Y013330D02*
X011247Y013330D01*
X011247Y013172D02*
X011473Y013172D01*
X011615Y013013D02*
X011247Y013013D01*
X011247Y012855D02*
X014627Y012855D01*
X014469Y013013D02*
X012320Y013013D01*
X012462Y013172D02*
X014310Y013172D01*
X014178Y013330D02*
X012528Y013330D01*
X012537Y013489D02*
X014147Y013489D01*
X014147Y013647D02*
X012510Y013647D01*
X012435Y013806D02*
X014147Y013806D01*
X014147Y013964D02*
X012257Y013964D01*
X012397Y014123D02*
X014147Y014123D01*
X014147Y014281D02*
X012485Y014281D01*
X012517Y014440D02*
X014147Y014440D01*
X014147Y014598D02*
X012503Y014598D01*
X012437Y014757D02*
X014147Y014757D01*
X014147Y014915D02*
X012286Y014915D01*
X011987Y014915D02*
X011947Y014915D01*
X011947Y014757D02*
X011987Y014757D01*
X011987Y014598D02*
X011947Y014598D01*
X011843Y015391D02*
X014147Y015391D01*
X014147Y015549D02*
X012002Y015549D01*
X012160Y015708D02*
X014147Y015708D01*
X014147Y015866D02*
X012272Y015866D01*
X012506Y016025D02*
X014147Y016025D01*
X014147Y016183D02*
X012691Y016183D01*
X012757Y016342D02*
X014147Y016342D01*
X014147Y016500D02*
X012767Y016500D01*
X012729Y016659D02*
X014147Y016659D01*
X014147Y016817D02*
X012624Y016817D01*
X012519Y017057D02*
X012580Y017101D01*
X012634Y017155D01*
X012678Y017216D01*
X012712Y017283D01*
X012736Y017355D01*
X012747Y017430D01*
X012747Y017447D01*
X011987Y017447D01*
X011987Y016987D01*
X012305Y016987D01*
X012380Y016999D01*
X012452Y017023D01*
X012519Y017057D01*
X012613Y017134D02*
X014147Y017134D01*
X014147Y016976D02*
X010947Y016976D01*
X010947Y017134D02*
X011322Y017134D01*
X011301Y017155D02*
X011355Y017101D01*
X011416Y017057D01*
X011483Y017023D01*
X011555Y016999D01*
X011630Y016987D01*
X011947Y016987D01*
X011947Y017447D01*
X011987Y017447D01*
X011987Y017487D01*
X011947Y017487D01*
X011947Y017447D01*
X011187Y017447D01*
X011187Y017430D01*
X011199Y017355D01*
X011223Y017283D01*
X011257Y017216D01*
X011301Y017155D01*
X011219Y017293D02*
X010947Y017293D01*
X010947Y017451D02*
X011947Y017451D01*
X011947Y017487D02*
X011187Y017487D01*
X011187Y017505D01*
X011199Y017580D01*
X011223Y017652D01*
X011257Y017719D01*
X011301Y017780D01*
X011355Y017834D01*
X011416Y017878D01*
X011483Y017912D01*
X011555Y017936D01*
X011630Y017947D01*
X011947Y017947D01*
X011947Y017487D01*
X011987Y017487D02*
X011987Y017947D01*
X012305Y017947D01*
X012380Y017936D01*
X012452Y017912D01*
X012519Y017878D01*
X012580Y017834D01*
X012634Y017780D01*
X012678Y017719D01*
X012712Y017652D01*
X012736Y017580D01*
X012747Y017505D01*
X012747Y017487D01*
X011987Y017487D01*
X011987Y017451D02*
X014147Y017451D01*
X014147Y017293D02*
X012715Y017293D01*
X012726Y017610D02*
X014147Y017610D01*
X014147Y017768D02*
X012642Y017768D01*
X012406Y017927D02*
X014147Y017927D01*
X014147Y018085D02*
X012593Y018085D01*
X012551Y018044D02*
X012691Y018184D01*
X012767Y018368D01*
X012767Y018567D01*
X012691Y018751D01*
X012551Y018891D01*
X012367Y018967D01*
X011568Y018967D01*
X011384Y018891D01*
X011244Y018751D01*
X011167Y018567D01*
X011167Y018368D01*
X011244Y018184D01*
X011384Y018044D01*
X011568Y017967D01*
X012367Y017967D01*
X012551Y018044D01*
X012716Y018244D02*
X014147Y018244D01*
X014147Y018402D02*
X012767Y018402D01*
X012767Y018561D02*
X014147Y018561D01*
X014147Y018719D02*
X012704Y018719D01*
X012564Y018878D02*
X014147Y018878D01*
X014147Y019036D02*
X012534Y019036D01*
X012551Y019044D02*
X012691Y019184D01*
X012767Y019368D01*
X012767Y019567D01*
X012691Y019751D01*
X012551Y019891D01*
X012367Y019967D01*
X011568Y019967D01*
X011384Y019891D01*
X011244Y019751D01*
X011167Y019567D01*
X011167Y019368D01*
X011244Y019184D01*
X011384Y019044D01*
X011568Y018967D01*
X012367Y018967D01*
X012551Y019044D01*
X012696Y019195D02*
X014147Y019195D01*
X014147Y019353D02*
X012761Y019353D01*
X012767Y019512D02*
X014147Y019512D01*
X014147Y019670D02*
X012724Y019670D01*
X012613Y019829D02*
X014147Y019829D01*
X014147Y019987D02*
X012415Y019987D01*
X012367Y019967D02*
X012551Y020044D01*
X012691Y020184D01*
X012767Y020368D01*
X012767Y020567D01*
X012691Y020751D01*
X012551Y020891D01*
X012367Y020967D01*
X011568Y020967D01*
X011384Y020891D01*
X011244Y020751D01*
X011167Y020567D01*
X011167Y020368D01*
X011244Y020184D01*
X011384Y020044D01*
X011568Y019967D01*
X012367Y019967D01*
X012653Y020146D02*
X014147Y020146D01*
X014147Y020304D02*
X012741Y020304D01*
X012767Y020463D02*
X014147Y020463D01*
X014147Y020621D02*
X012745Y020621D01*
X012662Y020780D02*
X014147Y020780D01*
X014147Y020938D02*
X012437Y020938D01*
X012367Y020967D02*
X012551Y021044D01*
X012691Y021184D01*
X012767Y021368D01*
X012767Y021567D01*
X012691Y021751D01*
X012551Y021891D01*
X012367Y021967D01*
X011568Y021967D01*
X011384Y021891D01*
X011244Y021751D01*
X011167Y021567D01*
X011167Y021368D01*
X011244Y021184D01*
X011384Y021044D01*
X011568Y020967D01*
X012367Y020967D01*
X012604Y021097D02*
X014147Y021097D01*
X014147Y021255D02*
X012721Y021255D01*
X012767Y021414D02*
X014147Y021414D01*
X014147Y021572D02*
X012765Y021572D01*
X012699Y021731D02*
X014147Y021731D01*
X014147Y021889D02*
X012552Y021889D01*
X012501Y022048D02*
X014147Y022048D01*
X014147Y022206D02*
X012671Y022206D01*
X012678Y022216D02*
X012634Y022155D01*
X012580Y022101D01*
X012519Y022057D01*
X012452Y022023D01*
X012380Y021999D01*
X012305Y021987D01*
X011987Y021987D01*
X011987Y022447D01*
X011947Y022447D01*
X011947Y021987D01*
X011630Y021987D01*
X011555Y021999D01*
X011483Y022023D01*
X011416Y022057D01*
X011355Y022101D01*
X011301Y022155D01*
X011257Y022216D01*
X011223Y022283D01*
X011199Y022355D01*
X011187Y022430D01*
X011187Y022447D01*
X011947Y022447D01*
X011947Y022487D01*
X011187Y022487D01*
X011187Y022505D01*
X011199Y022580D01*
X011223Y022652D01*
X011257Y022719D01*
X011301Y022780D01*
X011355Y022834D01*
X011416Y022878D01*
X011483Y022912D01*
X011555Y022936D01*
X011630Y022947D01*
X011947Y022947D01*
X011947Y022487D01*
X011987Y022487D01*
X011987Y022947D01*
X012305Y022947D01*
X012380Y022936D01*
X012452Y022912D01*
X012519Y022878D01*
X012580Y022834D01*
X012634Y022780D01*
X012678Y022719D01*
X012712Y022652D01*
X012736Y022580D01*
X012747Y022505D01*
X012747Y022487D01*
X011987Y022487D01*
X011987Y022447D01*
X012747Y022447D01*
X012747Y022430D01*
X012736Y022355D01*
X012712Y022283D01*
X012678Y022216D01*
X012737Y022365D02*
X014147Y022365D01*
X014147Y022523D02*
X012745Y022523D01*
X012697Y022682D02*
X014147Y022682D01*
X014147Y022840D02*
X012571Y022840D01*
X012443Y022999D02*
X014147Y022999D01*
X014147Y023157D02*
X012665Y023157D01*
X012691Y023184D02*
X012551Y023044D01*
X012367Y022967D01*
X011568Y022967D01*
X011384Y023044D01*
X011244Y023184D01*
X011167Y023368D01*
X011167Y023567D01*
X011244Y023751D01*
X011384Y023891D01*
X011568Y023967D01*
X012367Y023967D01*
X012551Y023891D01*
X012691Y023751D01*
X012767Y023567D01*
X012767Y023368D01*
X012691Y023184D01*
X012746Y023316D02*
X014147Y023316D01*
X014147Y023474D02*
X012767Y023474D01*
X012740Y023633D02*
X014190Y023633D01*
X014339Y023791D02*
X012650Y023791D01*
X012409Y023950D02*
X014497Y023950D01*
X014647Y024108D02*
X010947Y024108D01*
X010947Y023950D02*
X011526Y023950D01*
X011284Y023791D02*
X010947Y023791D01*
X010947Y023633D02*
X011195Y023633D01*
X011167Y023474D02*
X010947Y023474D01*
X010947Y023316D02*
X011189Y023316D01*
X011270Y023157D02*
X010947Y023157D01*
X010947Y022999D02*
X011492Y022999D01*
X011364Y022840D02*
X010947Y022840D01*
X010947Y022682D02*
X011238Y022682D01*
X011190Y022523D02*
X010947Y022523D01*
X010947Y022365D02*
X011198Y022365D01*
X011264Y022206D02*
X010947Y022206D01*
X010947Y022048D02*
X011433Y022048D01*
X011382Y021889D02*
X010947Y021889D01*
X010947Y021731D02*
X011235Y021731D01*
X011170Y021572D02*
X010947Y021572D01*
X010947Y021414D02*
X011167Y021414D01*
X011214Y021255D02*
X010947Y021255D01*
X010947Y021097D02*
X011331Y021097D01*
X011498Y020938D02*
X010947Y020938D01*
X010947Y020780D02*
X011273Y020780D01*
X011190Y020621D02*
X010947Y020621D01*
X010947Y020463D02*
X011167Y020463D01*
X011194Y020304D02*
X010947Y020304D01*
X010947Y020146D02*
X011282Y020146D01*
X011520Y019987D02*
X010947Y019987D01*
X010947Y019829D02*
X011322Y019829D01*
X011210Y019670D02*
X010947Y019670D01*
X010947Y019512D02*
X011167Y019512D01*
X011173Y019353D02*
X010947Y019353D01*
X010947Y019195D02*
X011239Y019195D01*
X011401Y019036D02*
X010947Y019036D01*
X010947Y018878D02*
X011371Y018878D01*
X011231Y018719D02*
X010947Y018719D01*
X010947Y018561D02*
X011167Y018561D01*
X011167Y018402D02*
X010947Y018402D01*
X010947Y018244D02*
X011219Y018244D01*
X011342Y018085D02*
X010947Y018085D01*
X010947Y017927D02*
X011528Y017927D01*
X011293Y017768D02*
X010947Y017768D01*
X010947Y017610D02*
X011209Y017610D01*
X011947Y017610D02*
X011987Y017610D01*
X011987Y017768D02*
X011947Y017768D01*
X011947Y017927D02*
X011987Y017927D01*
X011987Y017293D02*
X011947Y017293D01*
X011947Y017134D02*
X011987Y017134D01*
X011310Y016817D02*
X010947Y016817D01*
X010947Y016659D02*
X011206Y016659D01*
X011167Y016500D02*
X010947Y016500D01*
X010947Y016342D02*
X011178Y016342D01*
X011244Y016183D02*
X010947Y016183D01*
X010947Y016025D02*
X011429Y016025D01*
X011414Y015866D02*
X010947Y015866D01*
X010947Y015708D02*
X011255Y015708D01*
X011153Y015549D02*
X010947Y015549D01*
X010947Y015391D02*
X010995Y015391D01*
X011247Y012696D02*
X014786Y012696D01*
X014944Y012538D02*
X011247Y012538D01*
X011247Y012379D02*
X015103Y012379D01*
X015261Y012221D02*
X011247Y012221D01*
X011247Y012062D02*
X015397Y012062D01*
X015397Y011904D02*
X011247Y011904D01*
X011247Y011745D02*
X015442Y011745D01*
X015542Y011587D02*
X011247Y011587D01*
X011247Y011428D02*
X011735Y011428D01*
X011676Y011404D02*
X011865Y011482D01*
X012070Y011482D01*
X012259Y011404D01*
X012404Y011259D01*
X012472Y011094D01*
X012472Y011172D01*
X012762Y011462D01*
X012967Y011462D01*
X012967Y010967D01*
X012967Y010967D01*
X012967Y010472D01*
X012762Y010472D01*
X012472Y010762D01*
X012472Y010841D01*
X012404Y010676D01*
X012259Y010531D01*
X012070Y010452D01*
X011865Y010452D01*
X011676Y010531D01*
X011531Y010676D01*
X011452Y010865D01*
X011452Y011070D01*
X011531Y011259D01*
X011676Y011404D01*
X011542Y011270D02*
X011247Y011270D01*
X011247Y011111D02*
X011470Y011111D01*
X011452Y010953D02*
X011247Y010953D01*
X011247Y010794D02*
X011482Y010794D01*
X011571Y010636D02*
X011247Y010636D01*
X011247Y010477D02*
X011805Y010477D01*
X012130Y010477D02*
X012757Y010477D01*
X012967Y010477D02*
X012967Y010477D01*
X012967Y010472D02*
X013172Y010472D01*
X013462Y010762D01*
X013462Y010967D01*
X012967Y010967D01*
X012967Y010472D01*
X012967Y010636D02*
X012967Y010636D01*
X012967Y010794D02*
X012967Y010794D01*
X012967Y010953D02*
X012967Y010953D01*
X012967Y010967D02*
X012967Y010967D01*
X012967Y010967D01*
X013462Y010967D01*
X013462Y011172D01*
X013172Y011462D01*
X012967Y011462D01*
X012967Y010967D01*
X012967Y011111D02*
X012967Y011111D01*
X012967Y011270D02*
X012967Y011270D01*
X012967Y011428D02*
X012967Y011428D01*
X012728Y011428D02*
X012200Y011428D01*
X012393Y011270D02*
X012570Y011270D01*
X012472Y011111D02*
X012465Y011111D01*
X012453Y010794D02*
X012472Y010794D01*
X012364Y010636D02*
X012599Y010636D01*
X013177Y010477D02*
X015661Y010477D01*
X015513Y010319D02*
X011247Y010319D01*
X011247Y010160D02*
X015430Y010160D01*
X015397Y010002D02*
X011247Y010002D01*
X011247Y009843D02*
X015402Y009843D01*
X015467Y009685D02*
X011247Y009685D01*
X011247Y009526D02*
X015602Y009526D01*
X015562Y009368D02*
X011247Y009368D01*
X011247Y009209D02*
X015451Y009209D01*
X015397Y009051D02*
X011247Y009051D01*
X011247Y008892D02*
X014770Y008892D01*
X014785Y008907D02*
X014527Y008650D01*
X014527Y008467D01*
X014527Y008285D01*
X014785Y008027D01*
X014967Y008027D01*
X014967Y008467D01*
X014527Y008467D01*
X014967Y008467D01*
X014967Y008467D01*
X014967Y008467D01*
X014967Y008027D01*
X015150Y008027D01*
X015407Y008285D01*
X015407Y008467D01*
X014967Y008467D01*
X014967Y008907D01*
X014785Y008907D01*
X014967Y008907D02*
X014967Y008467D01*
X014967Y008467D01*
X014967Y008467D01*
X015407Y008467D01*
X015407Y008650D01*
X015150Y008907D01*
X014967Y008907D01*
X014967Y008892D02*
X014967Y008892D01*
X014967Y008734D02*
X014967Y008734D01*
X014967Y008575D02*
X014967Y008575D01*
X014967Y008417D02*
X014967Y008417D01*
X014967Y008258D02*
X014967Y008258D01*
X014967Y008100D02*
X014967Y008100D01*
X014713Y008100D02*
X013287Y008100D01*
X013149Y008239D02*
X013031Y008287D01*
X012905Y008287D01*
X012801Y008391D01*
X012617Y008467D01*
X011818Y008467D01*
X011634Y008391D01*
X011494Y008251D01*
X011417Y008067D01*
X011417Y007868D01*
X011494Y007684D01*
X011634Y007544D01*
X011818Y007467D01*
X012617Y007467D01*
X012801Y007544D01*
X012870Y007613D01*
X013196Y007286D01*
X013286Y007196D01*
X013404Y007147D01*
X014637Y007147D01*
X014777Y007007D01*
X015158Y007007D01*
X015427Y007277D01*
X015427Y007658D01*
X015158Y007927D01*
X014777Y007927D01*
X014637Y007787D01*
X013600Y007787D01*
X013149Y008239D01*
X013101Y008258D02*
X014554Y008258D01*
X014527Y008417D02*
X012739Y008417D01*
X013446Y007941D02*
X015397Y007941D01*
X015405Y008100D02*
X015222Y008100D01*
X015381Y008258D02*
X015471Y008258D01*
X015407Y008417D02*
X015611Y008417D01*
X015553Y008575D02*
X015407Y008575D01*
X015447Y008734D02*
X015323Y008734D01*
X015397Y008892D02*
X015165Y008892D01*
X014612Y008734D02*
X011247Y008734D01*
X011247Y008575D02*
X014527Y008575D01*
X015302Y007783D02*
X015427Y007783D01*
X015427Y007624D02*
X015504Y007624D01*
X015427Y007466D02*
X015681Y007466D01*
X015501Y007307D02*
X015427Y007307D01*
X015426Y007149D02*
X015299Y007149D01*
X015397Y006990D02*
X012997Y006990D01*
X012997Y006987D02*
X012997Y007005D01*
X012986Y007080D01*
X012962Y007152D01*
X012928Y007219D01*
X012884Y007280D01*
X012830Y007334D01*
X012769Y007378D01*
X012702Y007412D01*
X012630Y007436D01*
X012555Y007447D01*
X012237Y007447D01*
X012237Y006987D01*
X012197Y006987D01*
X012197Y006947D01*
X012237Y006947D01*
X012237Y006487D01*
X012555Y006487D01*
X012630Y006499D01*
X012702Y006523D01*
X012769Y006557D01*
X012830Y006601D01*
X012884Y006655D01*
X012928Y006716D01*
X012962Y006783D01*
X012986Y006855D01*
X012997Y006930D01*
X012997Y006947D01*
X012237Y006947D01*
X012237Y006987D01*
X012997Y006987D01*
X012978Y006832D02*
X015407Y006832D01*
X015472Y006673D02*
X012897Y006673D01*
X012678Y006515D02*
X015614Y006515D01*
X015550Y006356D02*
X012835Y006356D01*
X013189Y006198D02*
X015446Y006198D01*
X015397Y006039D02*
X013348Y006039D01*
X013506Y005881D02*
X014759Y005881D01*
X014785Y005907D02*
X014527Y005650D01*
X014527Y005467D01*
X014527Y005285D01*
X014785Y005027D01*
X014967Y005027D01*
X014967Y005467D01*
X014527Y005467D01*
X014967Y005467D01*
X014967Y005467D01*
X014967Y005467D01*
X014967Y005027D01*
X015150Y005027D01*
X015407Y005285D01*
X015407Y005467D01*
X014967Y005467D01*
X014967Y005907D01*
X014785Y005907D01*
X014967Y005907D02*
X014967Y005467D01*
X014967Y005467D01*
X014967Y005467D01*
X015407Y005467D01*
X015407Y005650D01*
X015150Y005907D01*
X014967Y005907D01*
X014967Y005881D02*
X014967Y005881D01*
X014967Y005722D02*
X014967Y005722D01*
X014967Y005564D02*
X014967Y005564D01*
X014967Y005405D02*
X014967Y005405D01*
X014967Y005247D02*
X014967Y005247D01*
X014967Y005088D02*
X014967Y005088D01*
X014724Y005088D02*
X014299Y005088D01*
X014457Y004930D02*
X015417Y004930D01*
X015430Y005088D02*
X015211Y005088D01*
X015369Y005247D02*
X015493Y005247D01*
X015407Y005405D02*
X015635Y005405D01*
X015565Y005564D02*
X015407Y005564D01*
X015452Y005722D02*
X015335Y005722D01*
X015397Y005881D02*
X015176Y005881D01*
X014600Y005722D02*
X013665Y005722D01*
X013823Y005564D02*
X014527Y005564D01*
X014527Y005405D02*
X013982Y005405D01*
X014140Y005247D02*
X014566Y005247D01*
X015314Y004771D02*
X015453Y004771D01*
X015427Y004613D02*
X015545Y004613D01*
X015654Y004454D02*
X015427Y004454D01*
X015427Y004296D02*
X015490Y004296D01*
X015421Y004137D02*
X015288Y004137D01*
X015287Y003979D02*
X015397Y003979D01*
X015411Y003820D02*
X015287Y003820D01*
X015287Y003662D02*
X015477Y003662D01*
X015625Y003503D02*
X015287Y003503D01*
X015287Y003345D02*
X016039Y003345D01*
X015941Y003186D02*
X015287Y003186D01*
X015287Y003028D02*
X015897Y003028D01*
X015897Y002869D02*
X015287Y002869D01*
X015287Y002711D02*
X015957Y002711D01*
X016076Y002552D02*
X015335Y002552D01*
X015493Y002394D02*
X022441Y002394D01*
X022600Y002552D02*
X021859Y002552D01*
X021978Y002711D02*
X022758Y002711D01*
X022917Y002869D02*
X022037Y002869D01*
X022037Y003028D02*
X023075Y003028D01*
X023234Y003186D02*
X021994Y003186D01*
X021896Y003345D02*
X023392Y003345D01*
X023551Y003503D02*
X022310Y003503D01*
X022458Y003662D02*
X023709Y003662D01*
X023868Y003820D02*
X022523Y003820D01*
X022537Y003979D02*
X024026Y003979D01*
X024185Y004137D02*
X022514Y004137D01*
X022445Y004296D02*
X027743Y004296D01*
X027750Y004137D02*
X027901Y004137D01*
X027908Y003979D02*
X028060Y003979D01*
X028067Y003820D02*
X028218Y003820D01*
X028225Y003662D02*
X028377Y003662D01*
X028384Y003503D02*
X028535Y003503D01*
X028542Y003345D02*
X028687Y003345D01*
X028967Y003467D02*
X028967Y001967D01*
X028467Y001467D02*
X012467Y001467D01*
X012571Y001760D02*
X015222Y001760D01*
X015064Y001918D02*
X013417Y001918D01*
X013785Y002077D02*
X014905Y002077D01*
X014786Y002196D02*
X014786Y002196D01*
X014747Y002235D02*
X014003Y002235D01*
X014162Y002394D02*
X014651Y002394D01*
X014647Y002552D02*
X014269Y002552D01*
X014360Y002711D02*
X014647Y002711D01*
X014647Y002869D02*
X014419Y002869D01*
X014462Y003028D02*
X014647Y003028D01*
X014647Y003186D02*
X014491Y003186D01*
X014491Y003345D02*
X014647Y003345D01*
X014647Y003503D02*
X014491Y003503D01*
X014453Y003662D02*
X014647Y003662D01*
X014647Y003820D02*
X014411Y003820D01*
X014342Y003979D02*
X014647Y003979D01*
X014647Y004137D02*
X014251Y004137D01*
X014186Y004296D02*
X014131Y004296D01*
X014028Y004454D02*
X013972Y004454D01*
X013869Y004613D02*
X013732Y004613D01*
X013711Y004771D02*
X013303Y004771D01*
X013552Y004930D02*
X011247Y004930D01*
X011247Y005088D02*
X013394Y005088D01*
X013235Y005247D02*
X011247Y005247D01*
X011247Y005405D02*
X013077Y005405D01*
X012918Y005564D02*
X012821Y005564D01*
X012750Y004771D02*
X011247Y004771D01*
X011247Y004613D02*
X012321Y004613D01*
X012080Y004454D02*
X011247Y004454D01*
X011247Y004296D02*
X011922Y004296D01*
X011802Y004137D02*
X011247Y004137D01*
X011247Y003979D02*
X011711Y003979D01*
X011642Y003820D02*
X011247Y003820D01*
X011247Y003662D02*
X011600Y003662D01*
X011562Y003503D02*
X011247Y003503D01*
X011247Y003345D02*
X011562Y003345D01*
X011562Y003186D02*
X011247Y003186D01*
X011303Y003028D02*
X011591Y003028D01*
X011634Y002869D02*
X011461Y002869D01*
X011620Y002711D02*
X011693Y002711D01*
X011778Y002552D02*
X011784Y002552D01*
X012254Y002077D02*
X012268Y002077D01*
X012412Y001918D02*
X012636Y001918D01*
X015987Y004947D02*
X015987Y004987D01*
X016517Y004987D01*
X016517Y005011D01*
X016504Y005096D01*
X016477Y005179D01*
X016438Y005256D01*
X016387Y005326D01*
X016326Y005387D01*
X016256Y005438D01*
X016221Y005455D01*
X016290Y005484D01*
X016451Y005645D01*
X016537Y005854D01*
X016537Y006081D01*
X016451Y006290D01*
X016290Y006451D01*
X016250Y006467D01*
X016290Y006484D01*
X016451Y006645D01*
X016537Y006854D01*
X016537Y007081D01*
X016451Y007290D01*
X016290Y007451D01*
X016250Y007467D01*
X016290Y007484D01*
X016451Y007645D01*
X016537Y007854D01*
X016537Y008081D01*
X016451Y008290D01*
X016290Y008451D01*
X016250Y008467D01*
X016290Y008484D01*
X016451Y008645D01*
X016537Y008854D01*
X016537Y009081D01*
X016451Y009290D01*
X016290Y009451D01*
X016250Y009467D01*
X016290Y009484D01*
X016451Y009645D01*
X016452Y009647D01*
X020031Y009647D01*
X020149Y009696D01*
X021149Y010696D01*
X021239Y010786D01*
X021287Y010904D01*
X021287Y014835D01*
X021397Y014945D01*
X021397Y014854D01*
X021484Y014645D01*
X021645Y014484D01*
X021685Y014467D01*
X021645Y014451D01*
X021484Y014290D01*
X021397Y014081D01*
X021397Y013854D01*
X021484Y013645D01*
X021645Y013484D01*
X021685Y013467D01*
X021645Y013451D01*
X021484Y013290D01*
X021397Y013081D01*
X021397Y012854D01*
X021484Y012645D01*
X021645Y012484D01*
X021685Y012467D01*
X021645Y012451D01*
X021484Y012290D01*
X021397Y012081D01*
X021397Y011854D01*
X021484Y011645D01*
X021645Y011484D01*
X021685Y011467D01*
X021645Y011451D01*
X021484Y011290D01*
X021397Y011081D01*
X021397Y010854D01*
X021484Y010645D01*
X021645Y010484D01*
X021685Y010467D01*
X021645Y010451D01*
X021484Y010290D01*
X021397Y010081D01*
X021397Y009854D01*
X021484Y009645D01*
X021645Y009484D01*
X021685Y009467D01*
X021645Y009451D01*
X021484Y009290D01*
X021397Y009081D01*
X021397Y008854D01*
X021484Y008645D01*
X021645Y008484D01*
X021685Y008467D01*
X021645Y008451D01*
X021484Y008290D01*
X021397Y008081D01*
X021397Y007854D01*
X021484Y007645D01*
X021645Y007484D01*
X021714Y007455D01*
X021679Y007438D01*
X021609Y007387D01*
X021548Y007326D01*
X021497Y007256D01*
X021458Y007179D01*
X021431Y007096D01*
X021417Y007011D01*
X021417Y006987D01*
X021947Y006987D01*
X021947Y006947D01*
X021417Y006947D01*
X021417Y006924D01*
X021431Y006839D01*
X021458Y006756D01*
X021497Y006679D01*
X021548Y006609D01*
X021609Y006548D01*
X021679Y006497D01*
X021714Y006479D01*
X021645Y006451D01*
X021484Y006290D01*
X021397Y006081D01*
X021397Y005854D01*
X021484Y005645D01*
X021645Y005484D01*
X021685Y005467D01*
X021645Y005451D01*
X021484Y005290D01*
X021397Y005081D01*
X021397Y004854D01*
X021484Y004645D01*
X021645Y004484D01*
X021685Y004467D01*
X021645Y004451D01*
X021484Y004290D01*
X021397Y004081D01*
X021397Y003854D01*
X021484Y003645D01*
X021599Y003530D01*
X021581Y003537D01*
X021354Y003537D01*
X021145Y003451D01*
X020984Y003290D01*
X020967Y003250D01*
X020951Y003290D01*
X020790Y003451D01*
X020581Y003537D01*
X020354Y003537D01*
X020145Y003451D01*
X019984Y003290D01*
X019967Y003250D01*
X019951Y003290D01*
X019790Y003451D01*
X019581Y003537D01*
X019354Y003537D01*
X019145Y003451D01*
X018984Y003290D01*
X018967Y003250D01*
X018951Y003290D01*
X018790Y003451D01*
X018581Y003537D01*
X018354Y003537D01*
X018145Y003451D01*
X017984Y003290D01*
X017967Y003250D01*
X017951Y003290D01*
X017790Y003451D01*
X017581Y003537D01*
X017354Y003537D01*
X017145Y003451D01*
X016984Y003290D01*
X016967Y003250D01*
X016951Y003290D01*
X016790Y003451D01*
X016581Y003537D01*
X016354Y003537D01*
X016336Y003530D01*
X016451Y003645D01*
X016537Y003854D01*
X016537Y004081D01*
X016451Y004290D01*
X016290Y004451D01*
X016221Y004479D01*
X016256Y004497D01*
X016326Y004548D01*
X016387Y004609D01*
X016438Y004679D01*
X016477Y004756D01*
X016504Y004839D01*
X016517Y004924D01*
X016517Y004947D01*
X015987Y004947D01*
X016390Y004613D02*
X021516Y004613D01*
X021432Y004771D02*
X016482Y004771D01*
X016517Y004930D02*
X021397Y004930D01*
X021401Y005088D02*
X016505Y005088D01*
X016442Y005247D02*
X021466Y005247D01*
X021599Y005405D02*
X016300Y005405D01*
X016370Y005564D02*
X021565Y005564D01*
X021452Y005722D02*
X016483Y005722D01*
X016537Y005881D02*
X021397Y005881D01*
X021397Y006039D02*
X016537Y006039D01*
X016489Y006198D02*
X021446Y006198D01*
X021550Y006356D02*
X016384Y006356D01*
X016321Y006515D02*
X021654Y006515D01*
X021501Y006673D02*
X016463Y006673D01*
X016528Y006832D02*
X021433Y006832D01*
X021417Y006990D02*
X017484Y006990D01*
X017415Y006922D02*
X017576Y007082D01*
X017662Y007292D01*
X017662Y007518D01*
X017576Y007728D01*
X017415Y007888D01*
X017375Y007905D01*
X017415Y007922D01*
X017576Y008082D01*
X017662Y008292D01*
X017662Y008518D01*
X017576Y008728D01*
X017415Y008888D01*
X017206Y008975D01*
X016979Y008975D01*
X016770Y008888D01*
X016609Y008728D01*
X016522Y008518D01*
X016522Y008292D01*
X016609Y008082D01*
X016770Y007922D01*
X016810Y007905D01*
X016770Y007888D01*
X016609Y007728D01*
X016522Y007518D01*
X016522Y007292D01*
X016609Y007082D01*
X016770Y006922D01*
X016979Y006835D01*
X017206Y006835D01*
X017415Y006922D01*
X017603Y007149D02*
X021448Y007149D01*
X021535Y007307D02*
X017662Y007307D01*
X017662Y007466D02*
X021689Y007466D01*
X021504Y007624D02*
X017618Y007624D01*
X017520Y007783D02*
X021427Y007783D01*
X021397Y007941D02*
X017435Y007941D01*
X017583Y008100D02*
X021405Y008100D01*
X021471Y008258D02*
X017649Y008258D01*
X017662Y008417D02*
X021611Y008417D01*
X021553Y008575D02*
X017639Y008575D01*
X017569Y008734D02*
X021447Y008734D01*
X021397Y008892D02*
X017405Y008892D01*
X016780Y008892D02*
X016537Y008892D01*
X016537Y009051D02*
X021397Y009051D01*
X021451Y009209D02*
X016484Y009209D01*
X016373Y009368D02*
X021562Y009368D01*
X021602Y009526D02*
X016333Y009526D01*
X016488Y008734D02*
X016615Y008734D01*
X016546Y008575D02*
X016382Y008575D01*
X016324Y008417D02*
X016522Y008417D01*
X016536Y008258D02*
X016464Y008258D01*
X016529Y008100D02*
X016602Y008100D01*
X016537Y007941D02*
X016750Y007941D01*
X016664Y007783D02*
X016508Y007783D01*
X016566Y007624D02*
X016431Y007624D01*
X016522Y007466D02*
X016253Y007466D01*
X016433Y007307D02*
X016522Y007307D01*
X016509Y007149D02*
X016581Y007149D01*
X016537Y006990D02*
X016701Y006990D01*
X016281Y004454D02*
X021654Y004454D01*
X021490Y004296D02*
X016445Y004296D01*
X016514Y004137D02*
X021421Y004137D01*
X021397Y003979D02*
X016537Y003979D01*
X016523Y003820D02*
X021411Y003820D01*
X021477Y003662D02*
X016458Y003662D01*
X016663Y003503D02*
X017272Y003503D01*
X017039Y003345D02*
X016896Y003345D01*
X017663Y003503D02*
X018272Y003503D01*
X018039Y003345D02*
X017896Y003345D01*
X018663Y003503D02*
X019272Y003503D01*
X019039Y003345D02*
X018896Y003345D01*
X019663Y003503D02*
X020272Y003503D01*
X020039Y003345D02*
X019896Y003345D01*
X020663Y003503D02*
X021272Y003503D01*
X021039Y003345D02*
X020896Y003345D01*
X020859Y002552D02*
X021076Y002552D01*
X020076Y002552D02*
X019859Y002552D01*
X019076Y002552D02*
X018859Y002552D01*
X018076Y002552D02*
X017859Y002552D01*
X017076Y002552D02*
X016859Y002552D01*
X013400Y007149D02*
X012963Y007149D01*
X012856Y007307D02*
X013175Y007307D01*
X013016Y007466D02*
X011247Y007466D01*
X011247Y007624D02*
X011553Y007624D01*
X011453Y007783D02*
X011247Y007783D01*
X011247Y007941D02*
X011417Y007941D01*
X011431Y008100D02*
X011247Y008100D01*
X011247Y008258D02*
X011501Y008258D01*
X011696Y008417D02*
X011247Y008417D01*
X011247Y007307D02*
X011579Y007307D01*
X011605Y007334D02*
X011551Y007280D01*
X011507Y007219D01*
X011473Y007152D01*
X011449Y007080D01*
X011437Y007005D01*
X011437Y006987D01*
X012197Y006987D01*
X012197Y007447D01*
X011880Y007447D01*
X011805Y007436D01*
X011733Y007412D01*
X011666Y007378D01*
X011605Y007334D01*
X011472Y007149D02*
X011247Y007149D01*
X011247Y006990D02*
X011437Y006990D01*
X011437Y006947D02*
X011437Y006930D01*
X011449Y006855D01*
X011473Y006783D01*
X011507Y006716D01*
X011551Y006655D01*
X011605Y006601D01*
X011666Y006557D01*
X011733Y006523D01*
X011805Y006499D01*
X011880Y006487D01*
X012197Y006487D01*
X012197Y006947D01*
X011437Y006947D01*
X011457Y006832D02*
X011247Y006832D01*
X011247Y006673D02*
X011538Y006673D01*
X011757Y006515D02*
X011247Y006515D01*
X011247Y006356D02*
X011599Y006356D01*
X011472Y006198D02*
X011247Y006198D01*
X011247Y006039D02*
X011417Y006039D01*
X011417Y005881D02*
X011247Y005881D01*
X011247Y005722D02*
X011478Y005722D01*
X011614Y005564D02*
X011247Y005564D01*
X012197Y006515D02*
X012237Y006515D01*
X012237Y006673D02*
X012197Y006673D01*
X012197Y006832D02*
X012237Y006832D01*
X012237Y006990D02*
X012197Y006990D01*
X012197Y007149D02*
X012237Y007149D01*
X012237Y007307D02*
X012197Y007307D01*
X013336Y010636D02*
X015493Y010636D01*
X015422Y010794D02*
X013462Y010794D01*
X013462Y010953D02*
X015397Y010953D01*
X015410Y011111D02*
X013462Y011111D01*
X013365Y011270D02*
X015476Y011270D01*
X015622Y011428D02*
X013206Y011428D01*
X015057Y013330D02*
X015152Y013330D01*
X015215Y013172D02*
X015310Y013172D01*
X015399Y013084D02*
X015397Y013081D01*
X015397Y012990D01*
X014787Y013600D01*
X014787Y023335D01*
X015239Y023786D01*
X015287Y023904D01*
X015287Y025335D01*
X016100Y026147D01*
X016527Y026147D01*
X016527Y025967D01*
X016527Y025785D01*
X016785Y025527D01*
X016967Y025527D01*
X016967Y025967D01*
X016967Y025967D01*
X016527Y025967D01*
X016967Y025967D01*
X016967Y025967D01*
X016967Y025527D01*
X017075Y025527D01*
X015036Y023489D01*
X014946Y023399D01*
X014897Y023281D01*
X014897Y013654D01*
X014946Y013536D01*
X015399Y013084D01*
X015397Y013013D02*
X015374Y013013D01*
X014993Y013489D02*
X014898Y013489D01*
X014900Y013647D02*
X014787Y013647D01*
X014787Y013806D02*
X014897Y013806D01*
X014897Y013964D02*
X014787Y013964D01*
X014787Y014123D02*
X014897Y014123D01*
X014897Y014281D02*
X014787Y014281D01*
X014787Y014440D02*
X014897Y014440D01*
X014897Y014598D02*
X014787Y014598D01*
X014787Y014757D02*
X014897Y014757D01*
X014897Y014915D02*
X014787Y014915D01*
X014787Y015074D02*
X014897Y015074D01*
X014897Y015232D02*
X014787Y015232D01*
X014787Y015391D02*
X014897Y015391D01*
X014897Y015549D02*
X014787Y015549D01*
X014787Y015708D02*
X014897Y015708D01*
X014897Y015866D02*
X014787Y015866D01*
X014787Y016025D02*
X014897Y016025D01*
X014897Y016183D02*
X014787Y016183D01*
X014787Y016342D02*
X014897Y016342D01*
X014897Y016500D02*
X014787Y016500D01*
X014787Y016659D02*
X014897Y016659D01*
X014897Y016817D02*
X014787Y016817D01*
X014787Y016976D02*
X014897Y016976D01*
X014897Y017134D02*
X014787Y017134D01*
X014787Y017293D02*
X014897Y017293D01*
X014897Y017451D02*
X014787Y017451D01*
X014787Y017610D02*
X014897Y017610D01*
X014897Y017768D02*
X014787Y017768D01*
X014787Y017927D02*
X014897Y017927D01*
X014897Y018085D02*
X014787Y018085D01*
X014787Y018244D02*
X014897Y018244D01*
X014897Y018402D02*
X014787Y018402D01*
X014787Y018561D02*
X014897Y018561D01*
X014897Y018719D02*
X014787Y018719D01*
X014787Y018878D02*
X014897Y018878D01*
X014897Y019036D02*
X014787Y019036D01*
X014787Y019195D02*
X014897Y019195D01*
X014897Y019353D02*
X014787Y019353D01*
X014787Y019512D02*
X014897Y019512D01*
X014897Y019670D02*
X014787Y019670D01*
X014787Y019829D02*
X014897Y019829D01*
X014897Y019987D02*
X014787Y019987D01*
X014787Y020146D02*
X014897Y020146D01*
X014897Y020304D02*
X014787Y020304D01*
X014787Y020463D02*
X014897Y020463D01*
X014897Y020621D02*
X014787Y020621D01*
X014787Y020780D02*
X014897Y020780D01*
X014897Y020938D02*
X014787Y020938D01*
X014787Y021097D02*
X014897Y021097D01*
X014897Y021255D02*
X014787Y021255D01*
X014787Y021414D02*
X014897Y021414D01*
X014897Y021572D02*
X014787Y021572D01*
X014787Y021731D02*
X014897Y021731D01*
X014897Y021889D02*
X014787Y021889D01*
X014787Y022048D02*
X014897Y022048D01*
X014897Y022206D02*
X014787Y022206D01*
X014787Y022365D02*
X014897Y022365D01*
X014897Y022523D02*
X014787Y022523D01*
X014787Y022682D02*
X014897Y022682D01*
X014897Y022840D02*
X014787Y022840D01*
X014787Y022999D02*
X014897Y022999D01*
X014897Y023157D02*
X014787Y023157D01*
X014787Y023316D02*
X014912Y023316D01*
X014927Y023474D02*
X015022Y023474D01*
X015085Y023633D02*
X015180Y023633D01*
X015241Y023791D02*
X015339Y023791D01*
X015287Y023950D02*
X015497Y023950D01*
X015656Y024108D02*
X015287Y024108D01*
X015287Y024267D02*
X015814Y024267D01*
X015973Y024425D02*
X015287Y024425D01*
X015287Y024584D02*
X016131Y024584D01*
X016290Y024742D02*
X015287Y024742D01*
X015287Y024901D02*
X016448Y024901D01*
X016607Y025059D02*
X015287Y025059D01*
X015287Y025218D02*
X016765Y025218D01*
X016924Y025376D02*
X015329Y025376D01*
X015487Y025535D02*
X016778Y025535D01*
X016967Y025535D02*
X016967Y025535D01*
X016967Y025693D02*
X016967Y025693D01*
X016967Y025852D02*
X016967Y025852D01*
X016967Y025967D02*
X016967Y025967D01*
X016967Y026407D01*
X016860Y026407D01*
X017520Y027067D01*
X017567Y027067D01*
X017751Y027144D01*
X017891Y027284D01*
X017967Y027468D01*
X017967Y028267D01*
X017897Y028437D01*
X018038Y028437D01*
X017967Y028267D01*
X017967Y027468D01*
X018044Y027284D01*
X018184Y027144D01*
X018368Y027067D01*
X018567Y027067D01*
X018649Y027101D01*
X017407Y025860D01*
X017407Y025967D01*
X016967Y025967D01*
X016967Y025967D01*
X016967Y026407D01*
X017150Y026407D01*
X017407Y026150D01*
X017407Y025967D01*
X016967Y025967D01*
X016967Y026010D02*
X016967Y026010D01*
X016967Y026169D02*
X016967Y026169D01*
X016967Y026327D02*
X016967Y026327D01*
X016938Y026486D02*
X018033Y026486D01*
X017875Y026327D02*
X017230Y026327D01*
X017388Y026169D02*
X017716Y026169D01*
X017558Y026010D02*
X017407Y026010D01*
X017097Y026644D02*
X018192Y026644D01*
X018350Y026803D02*
X017255Y026803D01*
X017414Y026961D02*
X018509Y026961D01*
X018241Y027120D02*
X017694Y027120D01*
X017886Y027278D02*
X018049Y027278D01*
X017980Y027437D02*
X017955Y027437D01*
X017967Y027595D02*
X017967Y027595D01*
X017967Y027754D02*
X017967Y027754D01*
X017967Y027912D02*
X017967Y027912D01*
X017967Y028071D02*
X017967Y028071D01*
X017967Y028229D02*
X017967Y028229D01*
X017917Y028388D02*
X018018Y028388D01*
X019414Y026961D02*
X021647Y026961D01*
X021647Y026803D02*
X019782Y026803D01*
X019658Y026927D02*
X019927Y026658D01*
X019927Y026277D01*
X019658Y026007D01*
X019277Y026007D01*
X019007Y026277D01*
X019007Y026555D01*
X015537Y023085D01*
X015537Y015344D01*
X015645Y015451D01*
X015647Y015452D01*
X015647Y021031D01*
X015696Y021149D01*
X015786Y021239D01*
X019536Y024989D01*
X019630Y025027D01*
X019467Y025027D01*
X019467Y025467D01*
X019467Y025467D01*
X019027Y025467D01*
X019027Y025285D01*
X019285Y025027D01*
X019467Y025027D01*
X019467Y025467D01*
X019467Y025467D01*
X019027Y025467D01*
X019027Y025650D01*
X019285Y025907D01*
X019467Y025907D01*
X019467Y025467D01*
X019467Y025467D01*
X019467Y025467D01*
X019907Y025467D01*
X019907Y025285D01*
X019660Y025037D01*
X020085Y025037D01*
X021647Y026600D01*
X021647Y027180D01*
X021544Y027284D01*
X021467Y027468D01*
X021467Y028267D01*
X021397Y028437D01*
X021538Y028437D01*
X021467Y028267D01*
X021467Y027468D01*
X021391Y027284D01*
X021251Y027144D01*
X021067Y027067D01*
X020868Y027067D01*
X020684Y027144D01*
X020544Y027284D01*
X020467Y027468D01*
X020467Y028267D01*
X020397Y028437D01*
X020538Y028437D01*
X020467Y028267D01*
X020467Y027468D01*
X020391Y027284D01*
X020251Y027144D01*
X020067Y027067D01*
X019868Y027067D01*
X019684Y027144D01*
X019640Y027188D01*
X019380Y026927D01*
X019658Y026927D01*
X019741Y027120D02*
X019572Y027120D01*
X019927Y026644D02*
X021647Y026644D01*
X021533Y026486D02*
X019927Y026486D01*
X019927Y026327D02*
X021375Y026327D01*
X021216Y026169D02*
X019819Y026169D01*
X019661Y026010D02*
X021058Y026010D01*
X020899Y025852D02*
X019705Y025852D01*
X019650Y025907D02*
X019467Y025907D01*
X019467Y025467D01*
X019907Y025467D01*
X019907Y025650D01*
X019650Y025907D01*
X019467Y025852D02*
X019467Y025852D01*
X019467Y025693D02*
X019467Y025693D01*
X019467Y025535D02*
X019467Y025535D01*
X019467Y025376D02*
X019467Y025376D01*
X019467Y025218D02*
X019467Y025218D01*
X019467Y025059D02*
X019467Y025059D01*
X019448Y024901D02*
X017353Y024901D01*
X017195Y024742D02*
X019290Y024742D01*
X019131Y024584D02*
X017036Y024584D01*
X016878Y024425D02*
X018973Y024425D01*
X018814Y024267D02*
X016719Y024267D01*
X016561Y024108D02*
X018656Y024108D01*
X018497Y023950D02*
X016402Y023950D01*
X016244Y023791D02*
X018339Y023791D01*
X018180Y023633D02*
X016085Y023633D01*
X015927Y023474D02*
X018022Y023474D01*
X017863Y023316D02*
X015768Y023316D01*
X015610Y023157D02*
X017705Y023157D01*
X017546Y022999D02*
X015537Y022999D01*
X015537Y022840D02*
X017388Y022840D01*
X017229Y022682D02*
X015537Y022682D01*
X015537Y022523D02*
X017071Y022523D01*
X016912Y022365D02*
X015537Y022365D01*
X015537Y022206D02*
X016754Y022206D01*
X016595Y022048D02*
X015537Y022048D01*
X015537Y021889D02*
X016437Y021889D01*
X016278Y021731D02*
X015537Y021731D01*
X015537Y021572D02*
X016120Y021572D01*
X015961Y021414D02*
X015537Y021414D01*
X015537Y021255D02*
X015803Y021255D01*
X015675Y021097D02*
X015537Y021097D01*
X015537Y020938D02*
X015647Y020938D01*
X015647Y020780D02*
X015537Y020780D01*
X015537Y020621D02*
X015647Y020621D01*
X015647Y020463D02*
X015537Y020463D01*
X015537Y020304D02*
X015647Y020304D01*
X015647Y020146D02*
X015537Y020146D01*
X015537Y019987D02*
X015647Y019987D01*
X015647Y019829D02*
X015537Y019829D01*
X015537Y019670D02*
X015647Y019670D01*
X015647Y019512D02*
X015537Y019512D01*
X015537Y019353D02*
X015647Y019353D01*
X015647Y019195D02*
X015537Y019195D01*
X015537Y019036D02*
X015647Y019036D01*
X015647Y018878D02*
X015537Y018878D01*
X015537Y018719D02*
X015647Y018719D01*
X015647Y018561D02*
X015537Y018561D01*
X015537Y018402D02*
X015647Y018402D01*
X015647Y018244D02*
X015537Y018244D01*
X015537Y018085D02*
X015647Y018085D01*
X015647Y017927D02*
X015537Y017927D01*
X015537Y017768D02*
X015647Y017768D01*
X015647Y017610D02*
X015537Y017610D01*
X015537Y017451D02*
X015647Y017451D01*
X015647Y017293D02*
X015537Y017293D01*
X015537Y017134D02*
X015647Y017134D01*
X015647Y016976D02*
X015537Y016976D01*
X015537Y016817D02*
X015647Y016817D01*
X015647Y016659D02*
X015537Y016659D01*
X015537Y016500D02*
X015647Y016500D01*
X015647Y016342D02*
X015537Y016342D01*
X015537Y016183D02*
X015647Y016183D01*
X015647Y016025D02*
X015537Y016025D01*
X015537Y015866D02*
X015647Y015866D01*
X015647Y015708D02*
X015537Y015708D01*
X015537Y015549D02*
X015647Y015549D01*
X015585Y015391D02*
X015537Y015391D01*
X016287Y015452D02*
X016287Y016279D01*
X016317Y016207D01*
X016447Y016077D01*
X016616Y016007D01*
X017319Y016007D01*
X017488Y016077D01*
X017617Y016207D01*
X017687Y016376D01*
X017687Y016559D01*
X017617Y016728D01*
X017488Y016857D01*
X017319Y016927D01*
X016616Y016927D01*
X016447Y016857D01*
X016317Y016728D01*
X016287Y016655D01*
X016287Y020835D01*
X019271Y023819D01*
X019317Y023707D01*
X019447Y023577D01*
X019616Y023507D01*
X020319Y023507D01*
X020488Y023577D01*
X020617Y023707D01*
X020628Y023732D01*
X020705Y023809D01*
X022705Y025809D01*
X022747Y025912D01*
X022747Y027117D01*
X022868Y027067D01*
X023067Y027067D01*
X023251Y027144D01*
X023391Y027284D01*
X023467Y027468D01*
X023467Y028267D01*
X023391Y028451D01*
X023251Y028591D01*
X023067Y028667D01*
X022868Y028667D01*
X022714Y028604D01*
X022705Y028626D01*
X022626Y028705D01*
X023752Y028705D01*
X023696Y028649D02*
X023664Y028571D01*
X023544Y028451D01*
X023467Y028267D01*
X023467Y027468D01*
X023544Y027284D01*
X023684Y027144D01*
X023868Y027067D01*
X024067Y027067D01*
X024251Y027144D01*
X024391Y027284D01*
X024467Y027468D01*
X024467Y028267D01*
X024413Y028397D01*
X024521Y028397D01*
X024467Y028267D01*
X024467Y027468D01*
X024544Y027284D01*
X024684Y027144D01*
X024868Y027067D01*
X024915Y027067D01*
X025055Y026927D01*
X024777Y026927D01*
X024507Y026658D01*
X024507Y026277D01*
X024647Y026137D01*
X024647Y025600D01*
X024085Y025037D01*
X023688Y025037D01*
X023927Y025277D01*
X023927Y025658D01*
X023658Y025927D01*
X023277Y025927D01*
X023007Y025658D01*
X023007Y025277D01*
X023247Y025037D01*
X022154Y025037D01*
X022036Y024989D01*
X021286Y024239D01*
X021196Y024149D01*
X021147Y024031D01*
X021147Y022100D01*
X020429Y021382D01*
X020319Y021427D01*
X019616Y021427D01*
X019447Y021357D01*
X019317Y021228D01*
X019247Y021059D01*
X019247Y020876D01*
X019317Y020707D01*
X019447Y020577D01*
X019616Y020507D01*
X020319Y020507D01*
X020488Y020577D01*
X020577Y020666D01*
X020649Y020696D01*
X020739Y020786D01*
X021739Y021786D01*
X021787Y021904D01*
X021787Y023835D01*
X022350Y024397D01*
X022543Y024397D01*
X022447Y024357D01*
X022317Y024228D01*
X022247Y024059D01*
X022247Y023876D01*
X022317Y023707D01*
X022447Y023577D01*
X022616Y023507D01*
X023319Y023507D01*
X023488Y023577D01*
X023617Y023707D01*
X023687Y023876D01*
X023687Y024059D01*
X023617Y024228D01*
X023488Y024357D01*
X023391Y024397D01*
X024281Y024397D01*
X024399Y024446D01*
X024489Y024536D01*
X025147Y025195D01*
X025147Y022927D01*
X024777Y022927D01*
X024507Y022658D01*
X024507Y022277D01*
X024777Y022007D01*
X025147Y022007D01*
X025147Y021688D01*
X024908Y021927D01*
X024527Y021927D01*
X024287Y021688D01*
X024287Y022031D01*
X024239Y022149D01*
X024149Y022239D01*
X023636Y022751D01*
X023687Y022876D01*
X023687Y023059D01*
X023617Y023228D01*
X023488Y023357D01*
X023319Y023427D01*
X022616Y023427D01*
X022447Y023357D01*
X022317Y023228D01*
X022247Y023059D01*
X022247Y022876D01*
X022317Y022707D01*
X022447Y022577D01*
X022616Y022507D01*
X022975Y022507D01*
X023055Y022427D01*
X022616Y022427D01*
X022447Y022357D01*
X022317Y022228D01*
X022247Y022059D01*
X022247Y021876D01*
X022317Y021707D01*
X022447Y021577D01*
X022616Y021507D01*
X023319Y021507D01*
X023488Y021577D01*
X023617Y021707D01*
X023647Y021779D01*
X023647Y021099D01*
X023635Y021136D01*
X023604Y021198D01*
X023563Y021254D01*
X023514Y021303D01*
X023458Y021344D01*
X023396Y021375D01*
X023330Y021397D01*
X023262Y021407D01*
X022967Y021407D01*
X022673Y021407D01*
X022604Y021397D01*
X022538Y021375D01*
X022477Y021344D01*
X022421Y021303D01*
X022372Y021254D01*
X022331Y021198D01*
X022300Y021136D01*
X022278Y021070D01*
X022267Y021002D01*
X022267Y020967D01*
X022267Y020933D01*
X022278Y020864D01*
X022300Y020798D01*
X022331Y020737D01*
X022372Y020681D01*
X022421Y020632D01*
X022477Y020591D01*
X022538Y020560D01*
X022604Y020538D01*
X022673Y020527D01*
X022967Y020527D01*
X022967Y020967D01*
X022967Y020967D01*
X022267Y020967D01*
X022967Y020967D01*
X022967Y020967D01*
X022967Y020527D01*
X023262Y020527D01*
X023330Y020538D01*
X023396Y020560D01*
X023458Y020591D01*
X023514Y020632D01*
X023563Y020681D01*
X023604Y020737D01*
X023635Y020798D01*
X023647Y020836D01*
X023647Y020155D01*
X023617Y020228D01*
X023488Y020357D01*
X023319Y020427D01*
X022616Y020427D01*
X022447Y020357D01*
X022317Y020228D01*
X022247Y020059D01*
X022247Y019876D01*
X022317Y019707D01*
X022447Y019577D01*
X022616Y019507D01*
X023319Y019507D01*
X023488Y019577D01*
X023617Y019707D01*
X023647Y019779D01*
X023647Y019155D01*
X023617Y019228D01*
X023488Y019357D01*
X023319Y019427D01*
X022616Y019427D01*
X022447Y019357D01*
X022317Y019228D01*
X022247Y019059D01*
X022247Y018876D01*
X022317Y018707D01*
X022447Y018577D01*
X022616Y018507D01*
X023319Y018507D01*
X023488Y018577D01*
X023617Y018707D01*
X023647Y018779D01*
X023647Y018155D01*
X023617Y018228D01*
X023488Y018357D01*
X023319Y018427D01*
X022616Y018427D01*
X022447Y018357D01*
X022317Y018228D01*
X022247Y018059D01*
X022247Y017876D01*
X022299Y017751D01*
X020196Y015649D01*
X020147Y015531D01*
X020147Y011600D01*
X019335Y010787D01*
X017100Y010787D01*
X016891Y010996D01*
X016979Y010960D01*
X017206Y010960D01*
X017415Y011047D01*
X017576Y011207D01*
X017662Y011417D01*
X017662Y011643D01*
X017576Y011853D01*
X017415Y012013D01*
X017375Y012030D01*
X017415Y012047D01*
X017576Y012207D01*
X017662Y012417D01*
X017662Y012643D01*
X017576Y012853D01*
X017415Y013013D01*
X017206Y013100D01*
X016979Y013100D01*
X016770Y013013D01*
X016537Y013013D01*
X016537Y013081D02*
X016451Y013290D01*
X016290Y013451D01*
X016250Y013467D01*
X016290Y013484D01*
X016451Y013645D01*
X016537Y013854D01*
X016537Y014081D01*
X016451Y014290D01*
X016290Y014451D01*
X016250Y014467D01*
X016290Y014484D01*
X016451Y014645D01*
X016537Y014854D01*
X016537Y015081D01*
X016451Y015290D01*
X016290Y015451D01*
X016287Y015452D01*
X016350Y015391D02*
X020147Y015391D01*
X020147Y015232D02*
X016475Y015232D01*
X016537Y015074D02*
X020147Y015074D01*
X020147Y014915D02*
X016537Y014915D01*
X016497Y014757D02*
X020147Y014757D01*
X020147Y014598D02*
X016405Y014598D01*
X016301Y014440D02*
X020147Y014440D01*
X020147Y014281D02*
X016454Y014281D01*
X016520Y014123D02*
X020147Y014123D01*
X020147Y013964D02*
X016537Y013964D01*
X016517Y013806D02*
X020147Y013806D01*
X020147Y013647D02*
X016452Y013647D01*
X016295Y013489D02*
X020147Y013489D01*
X020147Y013330D02*
X016410Y013330D01*
X016500Y013172D02*
X020147Y013172D01*
X020147Y013013D02*
X017415Y013013D01*
X017573Y012855D02*
X020147Y012855D01*
X020147Y012696D02*
X017640Y012696D01*
X017662Y012538D02*
X020147Y012538D01*
X020147Y012379D02*
X017647Y012379D01*
X017581Y012221D02*
X020147Y012221D01*
X020147Y012062D02*
X017431Y012062D01*
X017524Y011904D02*
X020147Y011904D01*
X020147Y011745D02*
X017620Y011745D01*
X017662Y011587D02*
X020134Y011587D01*
X019976Y011428D02*
X017662Y011428D01*
X017602Y011270D02*
X019817Y011270D01*
X019659Y011111D02*
X017480Y011111D01*
X017093Y010794D02*
X019342Y010794D01*
X019500Y010953D02*
X016934Y010953D01*
X016582Y012787D02*
X016510Y012787D01*
X016537Y012854D01*
X016537Y013081D01*
X016537Y012855D02*
X016611Y012855D01*
X016609Y012853D02*
X016582Y012787D01*
X016609Y012853D02*
X016770Y013013D01*
X016287Y015549D02*
X020155Y015549D01*
X020255Y015708D02*
X016287Y015708D01*
X016287Y015866D02*
X020414Y015866D01*
X020361Y016025D02*
X020572Y016025D01*
X020488Y016077D02*
X020617Y016207D01*
X020687Y016376D01*
X020687Y016559D01*
X020636Y016683D01*
X021149Y017196D01*
X021239Y017286D01*
X021287Y017404D01*
X021287Y019531D01*
X021239Y019649D01*
X020739Y020149D01*
X020649Y020239D01*
X020577Y020268D01*
X020488Y020357D01*
X020319Y020427D01*
X019616Y020427D01*
X019447Y020357D01*
X019317Y020228D01*
X019247Y020059D01*
X019247Y019876D01*
X019317Y019707D01*
X019447Y019577D01*
X019616Y019507D01*
X020319Y019507D01*
X020429Y019553D01*
X020647Y019335D01*
X020647Y019155D01*
X020617Y019228D01*
X020488Y019357D01*
X020319Y019427D01*
X019616Y019427D01*
X019447Y019357D01*
X019317Y019228D01*
X019247Y019059D01*
X019247Y018876D01*
X019317Y018707D01*
X019447Y018577D01*
X019616Y018507D01*
X019647Y018507D01*
X019647Y018427D01*
X019616Y018427D01*
X019447Y018357D01*
X019317Y018228D01*
X019247Y018059D01*
X019247Y017876D01*
X019317Y017707D01*
X019447Y017577D01*
X019616Y017507D01*
X020319Y017507D01*
X020488Y017577D01*
X020617Y017707D01*
X020647Y017779D01*
X020647Y017600D01*
X019975Y016927D01*
X019616Y016927D01*
X019447Y016857D01*
X019317Y016728D01*
X019247Y016559D01*
X019247Y016376D01*
X019317Y016207D01*
X019447Y016077D01*
X019616Y016007D01*
X020319Y016007D01*
X020488Y016077D01*
X020594Y016183D02*
X020731Y016183D01*
X020673Y016342D02*
X020889Y016342D01*
X021048Y016500D02*
X020687Y016500D01*
X020646Y016659D02*
X021206Y016659D01*
X021365Y016817D02*
X020770Y016817D01*
X020928Y016976D02*
X021523Y016976D01*
X021682Y017134D02*
X021087Y017134D01*
X021241Y017293D02*
X021840Y017293D01*
X021999Y017451D02*
X021287Y017451D01*
X021287Y017610D02*
X022157Y017610D01*
X022292Y017768D02*
X021287Y017768D01*
X021287Y017927D02*
X022247Y017927D01*
X022258Y018085D02*
X021287Y018085D01*
X021287Y018244D02*
X022333Y018244D01*
X022556Y018402D02*
X021287Y018402D01*
X021287Y018561D02*
X022487Y018561D01*
X022312Y018719D02*
X021287Y018719D01*
X021287Y018878D02*
X022247Y018878D01*
X022247Y019036D02*
X021287Y019036D01*
X021287Y019195D02*
X022304Y019195D01*
X022443Y019353D02*
X021287Y019353D01*
X021287Y019512D02*
X022605Y019512D01*
X022354Y019670D02*
X021217Y019670D01*
X021058Y019829D02*
X022267Y019829D01*
X022247Y019987D02*
X020900Y019987D01*
X020741Y020146D02*
X022283Y020146D01*
X022394Y020304D02*
X020541Y020304D01*
X020532Y020621D02*
X022435Y020621D01*
X022309Y020780D02*
X020732Y020780D01*
X020891Y020938D02*
X022267Y020938D01*
X022287Y021097D02*
X021049Y021097D01*
X021208Y021255D02*
X022373Y021255D01*
X022459Y021572D02*
X021525Y021572D01*
X021366Y021414D02*
X023647Y021414D01*
X023647Y021572D02*
X023476Y021572D01*
X023627Y021731D02*
X023647Y021731D01*
X023647Y021255D02*
X023562Y021255D01*
X023626Y020780D02*
X023647Y020780D01*
X023647Y020621D02*
X023500Y020621D01*
X023647Y020463D02*
X016287Y020463D01*
X016287Y020621D02*
X019403Y020621D01*
X019287Y020780D02*
X016287Y020780D01*
X016391Y020938D02*
X019247Y020938D01*
X019263Y021097D02*
X016549Y021097D01*
X016708Y021255D02*
X019345Y021255D01*
X019583Y021414D02*
X016866Y021414D01*
X017025Y021572D02*
X019459Y021572D01*
X019447Y021577D02*
X019616Y021507D01*
X020319Y021507D01*
X020488Y021577D01*
X020617Y021707D01*
X020687Y021876D01*
X020687Y022059D01*
X020617Y022228D01*
X020488Y022357D01*
X020319Y022427D01*
X019616Y022427D01*
X019447Y022357D01*
X019317Y022228D01*
X019247Y022059D01*
X019247Y021876D01*
X019317Y021707D01*
X019447Y021577D01*
X019307Y021731D02*
X017183Y021731D01*
X017342Y021889D02*
X019247Y021889D01*
X019247Y022048D02*
X017500Y022048D01*
X017659Y022206D02*
X019309Y022206D01*
X019465Y022365D02*
X017817Y022365D01*
X017976Y022523D02*
X019577Y022523D01*
X019616Y022507D02*
X020319Y022507D01*
X020488Y022577D01*
X020617Y022707D01*
X020687Y022876D01*
X020687Y023059D01*
X020617Y023228D01*
X020488Y023357D01*
X020319Y023427D01*
X019616Y023427D01*
X019447Y023357D01*
X019317Y023228D01*
X019247Y023059D01*
X019247Y022876D01*
X019317Y022707D01*
X019447Y022577D01*
X019616Y022507D01*
X019342Y022682D02*
X018134Y022682D01*
X018293Y022840D02*
X019262Y022840D01*
X019247Y022999D02*
X018451Y022999D01*
X018610Y023157D02*
X019288Y023157D01*
X019405Y023316D02*
X018768Y023316D01*
X018927Y023474D02*
X021147Y023474D01*
X021147Y023316D02*
X020529Y023316D01*
X020647Y023157D02*
X021147Y023157D01*
X021147Y022999D02*
X020687Y022999D01*
X020673Y022840D02*
X021147Y022840D01*
X021147Y022682D02*
X020592Y022682D01*
X020358Y022523D02*
X021147Y022523D01*
X021147Y022365D02*
X020470Y022365D01*
X020626Y022206D02*
X021147Y022206D01*
X021095Y022048D02*
X020687Y022048D01*
X020687Y021889D02*
X020937Y021889D01*
X020778Y021731D02*
X020627Y021731D01*
X020620Y021572D02*
X020476Y021572D01*
X020461Y021414D02*
X020351Y021414D01*
X019394Y020304D02*
X016287Y020304D01*
X016287Y020146D02*
X019283Y020146D01*
X019247Y019987D02*
X016287Y019987D01*
X016287Y019829D02*
X019267Y019829D01*
X019354Y019670D02*
X016287Y019670D01*
X016287Y019512D02*
X019605Y019512D01*
X019443Y019353D02*
X016287Y019353D01*
X016287Y019195D02*
X019304Y019195D01*
X019247Y019036D02*
X016287Y019036D01*
X016287Y018878D02*
X019247Y018878D01*
X019312Y018719D02*
X016287Y018719D01*
X016287Y018561D02*
X019487Y018561D01*
X019556Y018402D02*
X016287Y018402D01*
X016287Y018244D02*
X019333Y018244D01*
X019258Y018085D02*
X016287Y018085D01*
X016287Y017927D02*
X019247Y017927D01*
X019292Y017768D02*
X016287Y017768D01*
X016287Y017610D02*
X019414Y017610D01*
X019407Y016817D02*
X017528Y016817D01*
X017646Y016659D02*
X019289Y016659D01*
X019247Y016500D02*
X017687Y016500D01*
X017673Y016342D02*
X019261Y016342D01*
X019341Y016183D02*
X017594Y016183D01*
X017361Y016025D02*
X019574Y016025D01*
X020023Y016976D02*
X016287Y016976D01*
X016287Y017134D02*
X020182Y017134D01*
X020340Y017293D02*
X016287Y017293D01*
X016287Y017451D02*
X020499Y017451D01*
X020520Y017610D02*
X020647Y017610D01*
X020643Y017768D02*
X020647Y017768D01*
X020631Y019195D02*
X020647Y019195D01*
X020629Y019353D02*
X020492Y019353D01*
X020470Y019512D02*
X020330Y019512D01*
X021683Y021731D02*
X022307Y021731D01*
X022247Y021889D02*
X021781Y021889D01*
X021787Y022048D02*
X022247Y022048D01*
X022309Y022206D02*
X021787Y022206D01*
X021787Y022365D02*
X022465Y022365D01*
X022577Y022523D02*
X021787Y022523D01*
X021787Y022682D02*
X022342Y022682D01*
X022262Y022840D02*
X021787Y022840D01*
X021787Y022999D02*
X022247Y022999D01*
X022288Y023157D02*
X021787Y023157D01*
X021787Y023316D02*
X022405Y023316D01*
X022391Y023633D02*
X021787Y023633D01*
X021787Y023791D02*
X022282Y023791D01*
X022247Y023950D02*
X021902Y023950D01*
X022061Y024108D02*
X022268Y024108D01*
X022219Y024267D02*
X022356Y024267D01*
X021790Y024742D02*
X021638Y024742D01*
X021631Y024584D02*
X021480Y024584D01*
X021473Y024425D02*
X021321Y024425D01*
X021314Y024267D02*
X021163Y024267D01*
X021179Y024108D02*
X021004Y024108D01*
X021147Y023950D02*
X020846Y023950D01*
X020687Y023791D02*
X021147Y023791D01*
X021147Y023633D02*
X020543Y023633D01*
X020467Y023967D02*
X019967Y023967D01*
X020467Y023967D02*
X022467Y025967D01*
X022467Y028467D01*
X022217Y028717D01*
X014967Y028717D01*
X014467Y028217D01*
X014467Y027867D01*
X014967Y027912D02*
X014967Y027912D01*
X014967Y027754D02*
X014967Y027754D01*
X014967Y027595D02*
X014967Y027595D01*
X014955Y027437D02*
X014980Y027437D01*
X015049Y027278D02*
X014886Y027278D01*
X014694Y027120D02*
X015241Y027120D01*
X015694Y027120D02*
X016241Y027120D01*
X016049Y027278D02*
X015886Y027278D01*
X015955Y027437D02*
X015980Y027437D01*
X015967Y027595D02*
X015967Y027595D01*
X015967Y027754D02*
X015967Y027754D01*
X015967Y027912D02*
X015967Y027912D01*
X015967Y028071D02*
X015967Y028071D01*
X015967Y028229D02*
X015967Y028229D01*
X015917Y028388D02*
X016018Y028388D01*
X014967Y028229D02*
X014967Y028229D01*
X014967Y028071D02*
X014967Y028071D01*
X014559Y028705D02*
X010947Y028705D01*
X010947Y028546D02*
X011139Y028546D01*
X011018Y028388D02*
X010947Y028388D01*
X010947Y028229D02*
X010967Y028229D01*
X010967Y028071D02*
X010947Y028071D01*
X010947Y027912D02*
X010967Y027912D01*
X010967Y027754D02*
X010947Y027754D01*
X010947Y027595D02*
X010967Y027595D01*
X010980Y027437D02*
X010947Y027437D01*
X010947Y027278D02*
X011049Y027278D01*
X010947Y027120D02*
X011241Y027120D01*
X010947Y026961D02*
X016509Y026961D01*
X016350Y026803D02*
X010947Y026803D01*
X010947Y026644D02*
X015692Y026644D01*
X015533Y026486D02*
X011705Y026486D01*
X011913Y026327D02*
X012677Y026327D01*
X013258Y026327D02*
X015375Y026327D01*
X015216Y026169D02*
X013416Y026169D01*
X013427Y026010D02*
X015058Y026010D01*
X014899Y025852D02*
X013427Y025852D01*
X013344Y025693D02*
X014741Y025693D01*
X014649Y025535D02*
X013185Y025535D01*
X013158Y025427D02*
X012777Y025427D01*
X012507Y025158D01*
X012507Y024777D01*
X012777Y024507D01*
X013158Y024507D01*
X013427Y024777D01*
X013427Y025158D01*
X013158Y025427D01*
X013209Y025376D02*
X013754Y025376D01*
X013785Y025407D02*
X013527Y025150D01*
X013527Y024967D01*
X013527Y024785D01*
X013785Y024527D01*
X013967Y024527D01*
X013967Y024967D01*
X013967Y024967D01*
X013527Y024967D01*
X013967Y024967D01*
X013967Y024967D01*
X013967Y024527D01*
X014150Y024527D01*
X014407Y024785D01*
X014407Y024967D01*
X013967Y024967D01*
X013967Y024967D01*
X013967Y025407D01*
X013785Y025407D01*
X013967Y025407D02*
X014150Y025407D01*
X014407Y025150D01*
X014407Y024967D01*
X013967Y024967D01*
X013967Y024967D01*
X013967Y025407D01*
X013967Y025376D02*
X013967Y025376D01*
X013967Y025218D02*
X013967Y025218D01*
X013967Y025059D02*
X013967Y025059D01*
X013967Y024901D02*
X013967Y024901D01*
X013967Y024742D02*
X013967Y024742D01*
X013967Y024584D02*
X013967Y024584D01*
X013729Y024584D02*
X013234Y024584D01*
X013393Y024742D02*
X013570Y024742D01*
X013527Y024901D02*
X013427Y024901D01*
X013427Y025059D02*
X013527Y025059D01*
X013596Y025218D02*
X013367Y025218D01*
X012749Y025535D02*
X011841Y025535D01*
X011864Y025376D02*
X012726Y025376D01*
X012567Y025218D02*
X011981Y025218D01*
X012037Y025059D02*
X012507Y025059D01*
X012507Y024901D02*
X012037Y024901D01*
X011991Y024742D02*
X012542Y024742D01*
X012700Y024584D02*
X011890Y024584D01*
X011648Y024425D02*
X014647Y024425D01*
X014647Y024267D02*
X010947Y024267D01*
X010947Y024425D02*
X011286Y024425D01*
X011045Y024584D02*
X010947Y024584D01*
X010947Y026327D02*
X011021Y026327D01*
X010947Y026486D02*
X011230Y026486D01*
X011694Y027120D02*
X012241Y027120D01*
X012049Y027278D02*
X011886Y027278D01*
X011955Y027437D02*
X011980Y027437D01*
X011967Y027595D02*
X011967Y027595D01*
X011967Y027754D02*
X011967Y027754D01*
X011967Y027912D02*
X011967Y027912D01*
X011967Y028071D02*
X011967Y028071D01*
X011967Y028229D02*
X011967Y028229D01*
X011917Y028388D02*
X012018Y028388D01*
X012139Y028546D02*
X011795Y028546D01*
X012795Y028546D02*
X013139Y028546D01*
X013018Y028388D02*
X012917Y028388D01*
X012967Y028229D02*
X012967Y028229D01*
X012967Y028071D02*
X012967Y028071D01*
X012967Y027912D02*
X012967Y027912D01*
X012967Y027754D02*
X012967Y027754D01*
X012967Y027595D02*
X012967Y027595D01*
X012955Y027437D02*
X012980Y027437D01*
X013049Y027278D02*
X012886Y027278D01*
X012694Y027120D02*
X013241Y027120D01*
X013694Y027120D02*
X014241Y027120D01*
X014049Y027278D02*
X013886Y027278D01*
X013955Y027437D02*
X013980Y027437D01*
X013967Y027595D02*
X013967Y027595D01*
X013967Y027754D02*
X013967Y027754D01*
X013967Y027912D02*
X013967Y027912D01*
X013967Y028071D02*
X013967Y028071D01*
X013967Y028229D02*
X013967Y028229D01*
X013917Y028388D02*
X014018Y028388D01*
X014139Y028546D02*
X013795Y028546D01*
X015963Y026010D02*
X016527Y026010D01*
X016527Y025852D02*
X015804Y025852D01*
X015646Y025693D02*
X016619Y025693D01*
X017512Y025059D02*
X019253Y025059D01*
X019095Y025218D02*
X017670Y025218D01*
X017829Y025376D02*
X019027Y025376D01*
X019027Y025535D02*
X017987Y025535D01*
X018146Y025693D02*
X019071Y025693D01*
X019230Y025852D02*
X018304Y025852D01*
X018463Y026010D02*
X019274Y026010D01*
X019115Y026169D02*
X018621Y026169D01*
X018780Y026327D02*
X019007Y026327D01*
X019007Y026486D02*
X018938Y026486D01*
X019864Y025693D02*
X020741Y025693D01*
X020582Y025535D02*
X019907Y025535D01*
X019907Y025376D02*
X020424Y025376D01*
X020265Y025218D02*
X019840Y025218D01*
X019682Y025059D02*
X020107Y025059D01*
X019282Y023791D02*
X019244Y023791D01*
X019391Y023633D02*
X019085Y023633D01*
X021787Y023474D02*
X025147Y023474D01*
X025147Y023316D02*
X023529Y023316D01*
X023647Y023157D02*
X025147Y023157D01*
X025147Y022999D02*
X023687Y022999D01*
X023673Y022840D02*
X024690Y022840D01*
X024531Y022682D02*
X023705Y022682D01*
X023864Y022523D02*
X024507Y022523D01*
X024507Y022365D02*
X024022Y022365D01*
X024181Y022206D02*
X024578Y022206D01*
X024736Y022048D02*
X024280Y022048D01*
X024287Y021889D02*
X024489Y021889D01*
X024330Y021731D02*
X024287Y021731D01*
X024946Y021889D02*
X025147Y021889D01*
X025147Y021731D02*
X025104Y021731D01*
X025787Y021731D02*
X027699Y021731D01*
X027656Y021713D02*
X027501Y021558D01*
X027417Y021356D01*
X027417Y021138D01*
X027501Y020935D01*
X027656Y020781D01*
X027858Y020697D01*
X028077Y020697D01*
X028279Y020781D01*
X028434Y020935D01*
X028517Y021138D01*
X028517Y021356D01*
X028434Y021558D01*
X028279Y021713D01*
X028077Y021797D01*
X027858Y021797D01*
X027656Y021713D01*
X027515Y021572D02*
X025787Y021572D01*
X025787Y021414D02*
X027441Y021414D01*
X027417Y021255D02*
X025787Y021255D01*
X025787Y021097D02*
X027434Y021097D01*
X027500Y020938D02*
X025787Y020938D01*
X025787Y020850D02*
X025787Y022007D01*
X026158Y022007D01*
X026427Y022277D01*
X026427Y022658D01*
X026158Y022927D01*
X025787Y022927D01*
X025787Y026027D01*
X025967Y026027D01*
X025967Y026467D01*
X025967Y026467D01*
X025967Y026027D01*
X026150Y026027D01*
X026407Y026285D01*
X026407Y026467D01*
X025967Y026467D01*
X025967Y026907D01*
X025787Y026907D01*
X025787Y027031D01*
X025753Y027115D01*
X025868Y027067D01*
X026067Y027067D01*
X026251Y027144D01*
X026391Y027284D01*
X026467Y027468D01*
X026467Y028267D01*
X026413Y028397D01*
X027725Y028397D01*
X027422Y028316D01*
X027088Y028123D01*
X026815Y027851D01*
X026623Y027517D01*
X026523Y027144D01*
X026523Y026759D01*
X026623Y026386D01*
X026815Y026053D01*
X027088Y025780D01*
X027422Y025587D01*
X027794Y025487D01*
X028180Y025487D01*
X028552Y025587D01*
X028886Y025780D01*
X029159Y026053D01*
X029352Y026386D01*
X029451Y026759D01*
X029451Y027144D01*
X029352Y027517D01*
X029196Y027786D01*
X029647Y027335D01*
X029647Y013600D01*
X027335Y011287D01*
X022452Y011287D01*
X022451Y011290D01*
X022290Y011451D01*
X022250Y011467D01*
X022290Y011484D01*
X022451Y011645D01*
X022452Y011647D01*
X024281Y011647D01*
X024399Y011696D01*
X026489Y013786D01*
X026537Y013904D01*
X026537Y015507D01*
X026908Y015507D01*
X027007Y015607D01*
X027007Y015277D01*
X027277Y015007D01*
X027658Y015007D01*
X027927Y015277D01*
X027927Y015658D01*
X027658Y015927D01*
X027277Y015927D01*
X027177Y015828D01*
X027177Y016135D01*
X027285Y016027D01*
X027467Y016027D01*
X027467Y016467D01*
X027027Y016467D01*
X027027Y016308D01*
X026908Y016427D01*
X026537Y016427D01*
X026537Y020031D01*
X026489Y020149D01*
X025787Y020850D01*
X025857Y020780D02*
X027658Y020780D01*
X028277Y020780D02*
X029647Y020780D01*
X029647Y020938D02*
X028435Y020938D01*
X028501Y021097D02*
X029647Y021097D01*
X029647Y021255D02*
X028517Y021255D01*
X028494Y021414D02*
X029647Y021414D01*
X029647Y021572D02*
X028420Y021572D01*
X028236Y021731D02*
X029647Y021731D01*
X029647Y021889D02*
X025787Y021889D01*
X026198Y022048D02*
X029647Y022048D01*
X029647Y022206D02*
X026357Y022206D01*
X026427Y022365D02*
X029647Y022365D01*
X029647Y022523D02*
X028174Y022523D01*
X028158Y022507D02*
X028427Y022777D01*
X028427Y023158D01*
X028158Y023427D01*
X027777Y023427D01*
X027507Y023158D01*
X027507Y022777D01*
X027777Y022507D01*
X028158Y022507D01*
X028332Y022682D02*
X029647Y022682D01*
X029647Y022840D02*
X028427Y022840D01*
X028427Y022999D02*
X029647Y022999D01*
X029647Y023157D02*
X028427Y023157D01*
X028269Y023316D02*
X029647Y023316D01*
X029647Y023474D02*
X025787Y023474D01*
X025787Y023316D02*
X027665Y023316D01*
X027507Y023157D02*
X025787Y023157D01*
X025787Y022999D02*
X027507Y022999D01*
X027507Y022840D02*
X026245Y022840D01*
X026403Y022682D02*
X027602Y022682D01*
X027761Y022523D02*
X026427Y022523D01*
X026777Y023507D02*
X027158Y023507D01*
X027427Y023777D01*
X027427Y024158D01*
X027158Y024427D01*
X026777Y024427D01*
X026507Y024158D01*
X026507Y023777D01*
X026777Y023507D01*
X026651Y023633D02*
X025787Y023633D01*
X025787Y023791D02*
X026507Y023791D01*
X026507Y023950D02*
X025787Y023950D01*
X025787Y024108D02*
X026507Y024108D01*
X026616Y024267D02*
X025787Y024267D01*
X025787Y024425D02*
X026775Y024425D01*
X027160Y024425D02*
X029647Y024425D01*
X029647Y024267D02*
X027318Y024267D01*
X027427Y024108D02*
X029647Y024108D01*
X029647Y023950D02*
X027427Y023950D01*
X027427Y023791D02*
X029647Y023791D01*
X029647Y023633D02*
X027283Y023633D01*
X027777Y024507D02*
X028158Y024507D01*
X028427Y024777D01*
X028427Y025158D01*
X028158Y025427D01*
X027777Y025427D01*
X027507Y025158D01*
X027507Y024777D01*
X027777Y024507D01*
X027700Y024584D02*
X025787Y024584D01*
X025787Y024742D02*
X027542Y024742D01*
X027507Y024901D02*
X025787Y024901D01*
X025787Y025059D02*
X027507Y025059D01*
X027567Y025218D02*
X025787Y025218D01*
X025787Y025376D02*
X027726Y025376D01*
X027617Y025535D02*
X025787Y025535D01*
X025787Y025693D02*
X027238Y025693D01*
X027016Y025852D02*
X025787Y025852D01*
X025787Y026010D02*
X026858Y026010D01*
X026748Y026169D02*
X026291Y026169D01*
X026407Y026327D02*
X026657Y026327D01*
X026596Y026486D02*
X026407Y026486D01*
X026407Y026467D02*
X026407Y026650D01*
X026150Y026907D01*
X025967Y026907D01*
X025967Y026467D01*
X025967Y026467D01*
X025967Y026467D01*
X026407Y026467D01*
X026407Y026644D02*
X026553Y026644D01*
X026523Y026803D02*
X026254Y026803D01*
X025967Y026803D02*
X025967Y026803D01*
X025967Y026644D02*
X025967Y026644D01*
X025967Y026486D02*
X025967Y026486D01*
X025967Y026327D02*
X025967Y026327D01*
X025967Y026169D02*
X025967Y026169D01*
X025787Y026961D02*
X026523Y026961D01*
X026523Y027120D02*
X026194Y027120D01*
X026386Y027278D02*
X026559Y027278D01*
X026601Y027437D02*
X026455Y027437D01*
X026467Y027595D02*
X026668Y027595D01*
X026760Y027754D02*
X026467Y027754D01*
X026467Y027912D02*
X026877Y027912D01*
X027036Y028071D02*
X026467Y028071D01*
X026467Y028229D02*
X027272Y028229D01*
X027690Y028388D02*
X026417Y028388D01*
X024518Y028388D02*
X024417Y028388D01*
X024467Y028229D02*
X024467Y028229D01*
X024467Y028071D02*
X024467Y028071D01*
X024467Y027912D02*
X024467Y027912D01*
X024467Y027754D02*
X024467Y027754D01*
X024467Y027595D02*
X024467Y027595D01*
X024455Y027437D02*
X024480Y027437D01*
X024549Y027278D02*
X024386Y027278D01*
X024194Y027120D02*
X024741Y027120D01*
X025021Y026961D02*
X022747Y026961D01*
X022747Y026803D02*
X023152Y026803D01*
X023277Y026927D02*
X023007Y026658D01*
X023007Y026277D01*
X023277Y026007D01*
X023658Y026007D01*
X023927Y026277D01*
X023927Y026658D01*
X023658Y026927D01*
X023277Y026927D01*
X023194Y027120D02*
X023741Y027120D01*
X023549Y027278D02*
X023386Y027278D01*
X023455Y027437D02*
X023480Y027437D01*
X023467Y027595D02*
X023467Y027595D01*
X023467Y027754D02*
X023467Y027754D01*
X023467Y027912D02*
X023467Y027912D01*
X023467Y028071D02*
X023467Y028071D01*
X023467Y028229D02*
X023467Y028229D01*
X023417Y028388D02*
X023518Y028388D01*
X023639Y028546D02*
X023295Y028546D01*
X023696Y028649D02*
X023881Y028834D01*
X022497Y028834D01*
X022626Y028705D01*
X021518Y028388D02*
X021417Y028388D01*
X021467Y028229D02*
X021467Y028229D01*
X021467Y028071D02*
X021467Y028071D01*
X021467Y027912D02*
X021467Y027912D01*
X021467Y027754D02*
X021467Y027754D01*
X021467Y027595D02*
X021467Y027595D01*
X021455Y027437D02*
X021480Y027437D01*
X021549Y027278D02*
X021386Y027278D01*
X021194Y027120D02*
X021647Y027120D01*
X020741Y027120D02*
X020194Y027120D01*
X020386Y027278D02*
X020549Y027278D01*
X020480Y027437D02*
X020455Y027437D01*
X020467Y027595D02*
X020467Y027595D01*
X020467Y027754D02*
X020467Y027754D01*
X020467Y027912D02*
X020467Y027912D01*
X020467Y028071D02*
X020467Y028071D01*
X020467Y028229D02*
X020467Y028229D01*
X020417Y028388D02*
X020518Y028388D01*
X022747Y026644D02*
X023007Y026644D01*
X023007Y026486D02*
X022747Y026486D01*
X022747Y026327D02*
X023007Y026327D01*
X023115Y026169D02*
X022747Y026169D01*
X022747Y026010D02*
X023274Y026010D01*
X023201Y025852D02*
X022723Y025852D01*
X022589Y025693D02*
X023043Y025693D01*
X023007Y025535D02*
X022431Y025535D01*
X022272Y025376D02*
X023007Y025376D01*
X023066Y025218D02*
X022114Y025218D01*
X021955Y025059D02*
X023225Y025059D01*
X023710Y025059D02*
X024107Y025059D01*
X024265Y025218D02*
X023868Y025218D01*
X023927Y025376D02*
X024424Y025376D01*
X024582Y025535D02*
X023927Y025535D01*
X023892Y025693D02*
X024647Y025693D01*
X024647Y025852D02*
X023733Y025852D01*
X023661Y026010D02*
X024647Y026010D01*
X024615Y026169D02*
X023819Y026169D01*
X023927Y026327D02*
X024507Y026327D01*
X024507Y026486D02*
X023927Y026486D01*
X023927Y026644D02*
X024507Y026644D01*
X024652Y026803D02*
X023782Y026803D01*
X025012Y025059D02*
X025147Y025059D01*
X025147Y024901D02*
X024853Y024901D01*
X024695Y024742D02*
X025147Y024742D01*
X025147Y024584D02*
X024536Y024584D01*
X024349Y024425D02*
X025147Y024425D01*
X025147Y024267D02*
X023578Y024267D01*
X023667Y024108D02*
X025147Y024108D01*
X025147Y023950D02*
X023687Y023950D01*
X023652Y023791D02*
X025147Y023791D01*
X025147Y023633D02*
X023543Y023633D01*
X021948Y024901D02*
X021797Y024901D01*
X022967Y021407D02*
X022967Y020967D01*
X022967Y020967D01*
X022967Y021407D01*
X022967Y021255D02*
X022967Y021255D01*
X022967Y021097D02*
X022967Y021097D01*
X022967Y020938D02*
X022967Y020938D01*
X022967Y020780D02*
X022967Y020780D01*
X022967Y020621D02*
X022967Y020621D01*
X023541Y020304D02*
X023647Y020304D01*
X023647Y019670D02*
X023581Y019670D01*
X023647Y019512D02*
X023330Y019512D01*
X023492Y019353D02*
X023647Y019353D01*
X023631Y019195D02*
X023647Y019195D01*
X023623Y018719D02*
X023647Y018719D01*
X023647Y018561D02*
X023448Y018561D01*
X023379Y018402D02*
X023647Y018402D01*
X023647Y018244D02*
X023601Y018244D01*
X026016Y020621D02*
X029647Y020621D01*
X029647Y020463D02*
X026174Y020463D01*
X026333Y020304D02*
X029647Y020304D01*
X029647Y020146D02*
X026490Y020146D01*
X026537Y019987D02*
X029647Y019987D01*
X029647Y019829D02*
X026537Y019829D01*
X026537Y019670D02*
X029647Y019670D01*
X029647Y019512D02*
X026537Y019512D01*
X026537Y019353D02*
X029647Y019353D01*
X029647Y019195D02*
X028180Y019195D01*
X028279Y019154D02*
X028077Y019238D01*
X027858Y019238D01*
X027656Y019154D01*
X027501Y018999D01*
X027417Y018797D01*
X027417Y018578D01*
X027501Y018376D01*
X027656Y018222D01*
X027858Y018138D01*
X028077Y018138D01*
X028279Y018222D01*
X028434Y018376D01*
X028517Y018578D01*
X028517Y018797D01*
X028434Y018999D01*
X028279Y019154D01*
X028397Y019036D02*
X029647Y019036D01*
X029647Y018878D02*
X028484Y018878D01*
X028517Y018719D02*
X029647Y018719D01*
X029647Y018561D02*
X028510Y018561D01*
X028444Y018402D02*
X029647Y018402D01*
X029647Y018244D02*
X028301Y018244D01*
X027634Y018244D02*
X026537Y018244D01*
X026537Y018402D02*
X027490Y018402D01*
X027425Y018561D02*
X026537Y018561D01*
X026537Y018719D02*
X027417Y018719D01*
X027451Y018878D02*
X026537Y018878D01*
X026537Y019036D02*
X027538Y019036D01*
X027754Y019195D02*
X026537Y019195D01*
X026537Y018085D02*
X029647Y018085D01*
X029647Y017927D02*
X026537Y017927D01*
X026537Y017768D02*
X029647Y017768D01*
X029647Y017610D02*
X026537Y017610D01*
X026537Y017451D02*
X029647Y017451D01*
X029647Y017293D02*
X026537Y017293D01*
X026537Y017134D02*
X029647Y017134D01*
X029647Y016976D02*
X029181Y016976D01*
X029179Y016977D02*
X029096Y017004D01*
X029011Y017017D01*
X028987Y017017D01*
X028987Y016487D01*
X029517Y016487D01*
X029517Y016511D01*
X029504Y016596D01*
X029477Y016679D01*
X029438Y016756D01*
X029387Y016826D01*
X029326Y016887D01*
X029256Y016938D01*
X029179Y016977D01*
X028987Y016976D02*
X028947Y016976D01*
X028947Y017017D02*
X028924Y017017D01*
X028839Y017004D01*
X028756Y016977D01*
X028679Y016938D01*
X028609Y016887D01*
X028548Y016826D01*
X028497Y016756D01*
X028458Y016679D01*
X028431Y016596D01*
X028417Y016511D01*
X028417Y016487D01*
X028947Y016487D01*
X028947Y016447D01*
X028417Y016447D01*
X028417Y016424D01*
X028431Y016339D01*
X028458Y016256D01*
X028497Y016179D01*
X028548Y016109D01*
X028609Y016048D01*
X028679Y015997D01*
X028714Y015979D01*
X028645Y015951D01*
X028484Y015790D01*
X028397Y015581D01*
X028397Y015354D01*
X028484Y015145D01*
X028645Y014984D01*
X028685Y014967D01*
X028645Y014951D01*
X028484Y014790D01*
X028397Y014581D01*
X028397Y014354D01*
X028484Y014145D01*
X028645Y013984D01*
X028854Y013897D01*
X029081Y013897D01*
X029290Y013984D01*
X029451Y014145D01*
X029537Y014354D01*
X029537Y014581D01*
X029451Y014790D01*
X029290Y014951D01*
X029250Y014967D01*
X029290Y014984D01*
X029451Y015145D01*
X029537Y015354D01*
X029537Y015581D01*
X029451Y015790D01*
X029290Y015951D01*
X029221Y015979D01*
X029256Y015997D01*
X029326Y016048D01*
X029387Y016109D01*
X029438Y016179D01*
X029477Y016256D01*
X029504Y016339D01*
X029517Y016424D01*
X029517Y016447D01*
X028987Y016447D01*
X028987Y016487D01*
X028947Y016487D01*
X028947Y017017D01*
X028754Y016976D02*
X026537Y016976D01*
X026537Y016817D02*
X027195Y016817D01*
X027285Y016907D02*
X027027Y016650D01*
X027027Y016467D01*
X027467Y016467D01*
X027467Y016467D01*
X027467Y016467D01*
X027467Y016027D01*
X027650Y016027D01*
X027907Y016285D01*
X027907Y016467D01*
X027467Y016467D01*
X027467Y016907D01*
X027285Y016907D01*
X027467Y016907D02*
X027467Y016467D01*
X027467Y016467D01*
X027467Y016467D01*
X027907Y016467D01*
X027907Y016650D01*
X027650Y016907D01*
X027467Y016907D01*
X027467Y016817D02*
X027467Y016817D01*
X027467Y016659D02*
X027467Y016659D01*
X027467Y016500D02*
X027467Y016500D01*
X027467Y016342D02*
X027467Y016342D01*
X027467Y016183D02*
X027467Y016183D01*
X027177Y016025D02*
X028641Y016025D01*
X028560Y015866D02*
X027719Y015866D01*
X027877Y015708D02*
X028450Y015708D01*
X028397Y015549D02*
X027927Y015549D01*
X027927Y015391D02*
X028397Y015391D01*
X028448Y015232D02*
X027883Y015232D01*
X027724Y015074D02*
X028555Y015074D01*
X028609Y014915D02*
X026537Y014915D01*
X026537Y014757D02*
X028470Y014757D01*
X028405Y014598D02*
X026537Y014598D01*
X026537Y014440D02*
X028397Y014440D01*
X028427Y014281D02*
X026537Y014281D01*
X026537Y014123D02*
X028506Y014123D01*
X028692Y013964D02*
X026537Y013964D01*
X026497Y013806D02*
X029647Y013806D01*
X029647Y013964D02*
X029243Y013964D01*
X029429Y014123D02*
X029647Y014123D01*
X029647Y014281D02*
X029507Y014281D01*
X029537Y014440D02*
X029647Y014440D01*
X029647Y014598D02*
X029530Y014598D01*
X029464Y014757D02*
X029647Y014757D01*
X029647Y014915D02*
X029325Y014915D01*
X029380Y015074D02*
X029647Y015074D01*
X029647Y015232D02*
X029487Y015232D01*
X029537Y015391D02*
X029647Y015391D01*
X029647Y015549D02*
X029537Y015549D01*
X029485Y015708D02*
X029647Y015708D01*
X029647Y015866D02*
X029374Y015866D01*
X029294Y016025D02*
X029647Y016025D01*
X029647Y016183D02*
X029440Y016183D01*
X029504Y016342D02*
X029647Y016342D01*
X029647Y016500D02*
X029517Y016500D01*
X029483Y016659D02*
X029647Y016659D01*
X029647Y016817D02*
X029393Y016817D01*
X028987Y016817D02*
X028947Y016817D01*
X028947Y016659D02*
X028987Y016659D01*
X028987Y016500D02*
X028947Y016500D01*
X028542Y016817D02*
X027740Y016817D01*
X027898Y016659D02*
X028451Y016659D01*
X028417Y016500D02*
X027907Y016500D01*
X027907Y016342D02*
X028430Y016342D01*
X028495Y016183D02*
X027806Y016183D01*
X027216Y015866D02*
X027177Y015866D01*
X027007Y015549D02*
X026950Y015549D01*
X027007Y015391D02*
X026537Y015391D01*
X026537Y015232D02*
X027052Y015232D01*
X027210Y015074D02*
X026537Y015074D01*
X026993Y016342D02*
X027027Y016342D01*
X027027Y016500D02*
X026537Y016500D01*
X026537Y016659D02*
X027037Y016659D01*
X026350Y013647D02*
X029647Y013647D01*
X029536Y013489D02*
X026191Y013489D01*
X026033Y013330D02*
X029378Y013330D01*
X029219Y013172D02*
X025874Y013172D01*
X025716Y013013D02*
X029061Y013013D01*
X028902Y012855D02*
X025557Y012855D01*
X025399Y012696D02*
X028744Y012696D01*
X028585Y012538D02*
X025240Y012538D01*
X025082Y012379D02*
X028427Y012379D01*
X028268Y012221D02*
X024923Y012221D01*
X024765Y012062D02*
X028110Y012062D01*
X027951Y011904D02*
X024606Y011904D01*
X024448Y011745D02*
X027793Y011745D01*
X027634Y011587D02*
X022393Y011587D01*
X022312Y011428D02*
X027476Y011428D01*
X024467Y007967D02*
X021967Y007967D01*
X022431Y007624D02*
X024414Y007624D01*
X024573Y007466D02*
X022246Y007466D01*
X022400Y007307D02*
X024731Y007307D01*
X024890Y007149D02*
X022487Y007149D01*
X022517Y006990D02*
X025048Y006990D01*
X025207Y006832D02*
X022502Y006832D01*
X022434Y006673D02*
X025365Y006673D01*
X025524Y006515D02*
X022280Y006515D01*
X022384Y006356D02*
X025682Y006356D01*
X025841Y006198D02*
X022489Y006198D01*
X022537Y006039D02*
X025999Y006039D01*
X026158Y005881D02*
X022537Y005881D01*
X022483Y005722D02*
X026316Y005722D01*
X026475Y005564D02*
X022370Y005564D01*
X022335Y005405D02*
X026633Y005405D01*
X026792Y005247D02*
X022469Y005247D01*
X022534Y005088D02*
X026950Y005088D01*
X027109Y004930D02*
X022537Y004930D01*
X022503Y004771D02*
X027267Y004771D01*
X027426Y004613D02*
X022419Y004613D01*
X022281Y004454D02*
X027584Y004454D01*
X027335Y003647D02*
X028011Y002972D01*
X027967Y002867D01*
X027967Y002068D01*
X028044Y001884D01*
X028180Y001747D01*
X027700Y001747D01*
X027719Y001757D01*
X027780Y001801D01*
X027834Y001855D01*
X027878Y001916D01*
X027912Y001983D01*
X027936Y002055D01*
X027947Y002130D01*
X027947Y002447D01*
X027487Y002447D01*
X027487Y002487D01*
X027447Y002487D01*
X027447Y002447D01*
X026987Y002447D01*
X026987Y002130D01*
X026999Y002055D01*
X027023Y001983D01*
X027057Y001916D01*
X027101Y001855D01*
X027155Y001801D01*
X027216Y001757D01*
X027234Y001747D01*
X026755Y001747D01*
X026891Y001884D01*
X026967Y002068D01*
X026967Y002867D01*
X026891Y003051D01*
X026751Y003191D01*
X026567Y003267D01*
X026368Y003267D01*
X026184Y003191D01*
X026044Y003051D01*
X025967Y002867D01*
X025891Y003051D01*
X025751Y003191D01*
X025567Y003267D01*
X025368Y003267D01*
X025184Y003191D01*
X025044Y003051D01*
X024967Y002867D01*
X024891Y003051D01*
X024751Y003191D01*
X024567Y003267D01*
X024368Y003267D01*
X024184Y003191D01*
X024044Y003051D01*
X023967Y002867D01*
X023967Y002068D01*
X024044Y001884D01*
X024180Y001747D01*
X022700Y001747D01*
X024600Y003647D01*
X027335Y003647D01*
X027479Y003503D02*
X024456Y003503D01*
X024297Y003345D02*
X027637Y003345D01*
X027580Y003236D02*
X027505Y003247D01*
X027487Y003247D01*
X027487Y002487D01*
X027947Y002487D01*
X027947Y002805D01*
X027936Y002880D01*
X027912Y002952D01*
X027878Y003019D01*
X027834Y003080D01*
X027780Y003134D01*
X027719Y003178D01*
X027652Y003212D01*
X027580Y003236D01*
X027487Y003186D02*
X027447Y003186D01*
X027447Y003247D02*
X027430Y003247D01*
X027355Y003236D01*
X027283Y003212D01*
X027216Y003178D01*
X027155Y003134D01*
X027101Y003080D01*
X027057Y003019D01*
X027023Y002952D01*
X026999Y002880D01*
X026987Y002805D01*
X026987Y002487D01*
X027447Y002487D01*
X027447Y003247D01*
X027447Y003028D02*
X027487Y003028D01*
X027487Y002869D02*
X027447Y002869D01*
X027447Y002711D02*
X027487Y002711D01*
X027487Y002552D02*
X027447Y002552D01*
X026987Y002552D02*
X026967Y002552D01*
X026967Y002394D02*
X026987Y002394D01*
X026987Y002235D02*
X026967Y002235D01*
X026967Y002077D02*
X026996Y002077D01*
X027056Y001918D02*
X026905Y001918D01*
X026767Y001760D02*
X027212Y001760D01*
X027723Y001760D02*
X028168Y001760D01*
X028029Y001918D02*
X027879Y001918D01*
X027939Y002077D02*
X027967Y002077D01*
X027967Y002235D02*
X027947Y002235D01*
X027947Y002394D02*
X027967Y002394D01*
X027967Y002552D02*
X027947Y002552D01*
X027947Y002711D02*
X027967Y002711D01*
X027968Y002869D02*
X027937Y002869D01*
X027954Y003028D02*
X027871Y003028D01*
X027796Y003186D02*
X027702Y003186D01*
X027232Y003186D02*
X026756Y003186D01*
X026901Y003028D02*
X027063Y003028D01*
X026998Y002869D02*
X026966Y002869D01*
X026967Y002711D02*
X026987Y002711D01*
X026179Y003186D02*
X025756Y003186D01*
X025901Y003028D02*
X026034Y003028D01*
X025966Y002869D02*
X025968Y002869D01*
X025967Y002867D02*
X025967Y002068D01*
X025891Y001884D01*
X025755Y001747D01*
X026180Y001747D01*
X026044Y001884D01*
X025967Y002068D01*
X025967Y002867D01*
X025967Y002711D02*
X025967Y002711D01*
X025967Y002552D02*
X025967Y002552D01*
X025967Y002394D02*
X025967Y002394D01*
X025967Y002235D02*
X025967Y002235D01*
X025967Y002077D02*
X025967Y002077D01*
X025905Y001918D02*
X026029Y001918D01*
X026168Y001760D02*
X025767Y001760D01*
X025180Y001747D02*
X024755Y001747D01*
X024891Y001884D01*
X024967Y002068D01*
X024967Y002867D01*
X024967Y002068D01*
X025044Y001884D01*
X025180Y001747D01*
X025168Y001760D02*
X024767Y001760D01*
X024905Y001918D02*
X025029Y001918D01*
X024967Y002077D02*
X024967Y002077D01*
X024967Y002235D02*
X024967Y002235D01*
X024967Y002394D02*
X024967Y002394D01*
X024967Y002552D02*
X024967Y002552D01*
X024967Y002711D02*
X024967Y002711D01*
X024966Y002869D02*
X024968Y002869D01*
X024901Y003028D02*
X025034Y003028D01*
X025179Y003186D02*
X024756Y003186D01*
X024179Y003186D02*
X024139Y003186D01*
X024034Y003028D02*
X023980Y003028D01*
X023968Y002869D02*
X023822Y002869D01*
X023967Y002711D02*
X023663Y002711D01*
X023505Y002552D02*
X023967Y002552D01*
X023967Y002394D02*
X023346Y002394D01*
X023188Y002235D02*
X023967Y002235D01*
X023967Y002077D02*
X023029Y002077D01*
X022871Y001918D02*
X024029Y001918D01*
X024168Y001760D02*
X022712Y001760D01*
X024467Y007967D02*
X028967Y003467D01*
X021467Y009685D02*
X020122Y009685D01*
X020296Y009843D02*
X021402Y009843D01*
X021397Y010002D02*
X020454Y010002D01*
X020613Y010160D02*
X021430Y010160D01*
X021513Y010319D02*
X020771Y010319D01*
X020930Y010477D02*
X021661Y010477D01*
X021493Y010636D02*
X021088Y010636D01*
X021242Y010794D02*
X021422Y010794D01*
X021397Y010953D02*
X021287Y010953D01*
X021287Y011111D02*
X021410Y011111D01*
X021476Y011270D02*
X021287Y011270D01*
X021287Y011428D02*
X021622Y011428D01*
X021542Y011587D02*
X021287Y011587D01*
X021287Y011745D02*
X021442Y011745D01*
X021397Y011904D02*
X021287Y011904D01*
X021287Y012062D02*
X021397Y012062D01*
X021455Y012221D02*
X021287Y012221D01*
X021287Y012379D02*
X021573Y012379D01*
X021591Y012538D02*
X021287Y012538D01*
X021287Y012696D02*
X021463Y012696D01*
X021397Y012855D02*
X021287Y012855D01*
X021287Y013013D02*
X021397Y013013D01*
X021435Y013172D02*
X021287Y013172D01*
X021287Y013330D02*
X021524Y013330D01*
X021640Y013489D02*
X021287Y013489D01*
X021287Y013647D02*
X021483Y013647D01*
X021417Y013806D02*
X021287Y013806D01*
X021287Y013964D02*
X021397Y013964D01*
X021415Y014123D02*
X021287Y014123D01*
X021287Y014281D02*
X021481Y014281D01*
X021634Y014440D02*
X021287Y014440D01*
X021287Y014598D02*
X021530Y014598D01*
X021438Y014757D02*
X021287Y014757D01*
X021368Y014915D02*
X021397Y014915D01*
X016574Y016025D02*
X016287Y016025D01*
X016287Y016183D02*
X016341Y016183D01*
X016289Y016659D02*
X016287Y016659D01*
X016287Y016817D02*
X016407Y016817D01*
X011987Y022048D02*
X011947Y022048D01*
X011947Y022206D02*
X011987Y022206D01*
X011987Y022365D02*
X011947Y022365D01*
X011947Y022523D02*
X011987Y022523D01*
X011987Y022682D02*
X011947Y022682D01*
X011947Y022840D02*
X011987Y022840D01*
X014206Y024584D02*
X014647Y024584D01*
X014647Y024742D02*
X014365Y024742D01*
X014407Y024901D02*
X014647Y024901D01*
X014647Y025059D02*
X014407Y025059D01*
X014339Y025218D02*
X014647Y025218D01*
X014647Y025376D02*
X014181Y025376D01*
X028209Y025376D02*
X029647Y025376D01*
X029647Y025218D02*
X028367Y025218D01*
X028427Y025059D02*
X029647Y025059D01*
X029647Y024901D02*
X028427Y024901D01*
X028393Y024742D02*
X029647Y024742D01*
X029647Y024584D02*
X028234Y024584D01*
X028357Y025535D02*
X029647Y025535D01*
X029647Y025693D02*
X028736Y025693D01*
X028958Y025852D02*
X029647Y025852D01*
X029647Y026010D02*
X029117Y026010D01*
X029226Y026169D02*
X029647Y026169D01*
X029647Y026327D02*
X029317Y026327D01*
X029378Y026486D02*
X029647Y026486D01*
X029647Y026644D02*
X029421Y026644D01*
X029451Y026803D02*
X029647Y026803D01*
X029647Y026961D02*
X029451Y026961D01*
X029451Y027120D02*
X029647Y027120D01*
X029647Y027278D02*
X029415Y027278D01*
X029373Y027437D02*
X029545Y027437D01*
X029387Y027595D02*
X029306Y027595D01*
X029228Y027754D02*
X029215Y027754D01*
D19*
X028967Y001967D02*
X028467Y001467D01*
D20*
X016467Y012467D02*
X015467Y012467D01*
M02*
