G75*
%MOIN*%
%OFA0B0*%
%FSLAX24Y24*%
%IPPOS*%
%LPD*%
%AMOC8*
5,1,8,0,0,1.08239X$1,22.5*
%
%ADD10C,0.0000*%
%ADD11C,0.0040*%
%ADD12C,0.0060*%
%ADD13C,0.0050*%
%ADD14C,0.0080*%
%ADD15R,0.0340X0.0240*%
%ADD16C,0.0020*%
%ADD17R,0.0240X0.0340*%
%ADD18C,0.0120*%
%ADD19R,0.0200X0.0800*%
%ADD20R,0.0250X0.0200*%
%ADD21C,0.0100*%
%ADD22R,0.0300X0.4200*%
%ADD23R,0.0200X0.0750*%
%ADD24R,0.0200X0.0300*%
D10*
X010467Y000967D02*
X010467Y029314D01*
X030546Y029314D01*
X030546Y000967D01*
X010467Y000967D01*
X012042Y003330D02*
X012044Y003392D01*
X012050Y003455D01*
X012060Y003516D01*
X012074Y003577D01*
X012091Y003637D01*
X012112Y003696D01*
X012138Y003753D01*
X012166Y003808D01*
X012198Y003862D01*
X012234Y003913D01*
X012272Y003963D01*
X012314Y004009D01*
X012358Y004053D01*
X012406Y004094D01*
X012455Y004132D01*
X012507Y004166D01*
X012561Y004197D01*
X012617Y004225D01*
X012675Y004249D01*
X012734Y004270D01*
X012794Y004286D01*
X012855Y004299D01*
X012917Y004308D01*
X012979Y004313D01*
X013042Y004314D01*
X013104Y004311D01*
X013166Y004304D01*
X013228Y004293D01*
X013288Y004278D01*
X013348Y004260D01*
X013406Y004238D01*
X013463Y004212D01*
X013518Y004182D01*
X013571Y004149D01*
X013622Y004113D01*
X013670Y004074D01*
X013716Y004031D01*
X013759Y003986D01*
X013799Y003938D01*
X013836Y003888D01*
X013870Y003835D01*
X013901Y003781D01*
X013927Y003725D01*
X013951Y003667D01*
X013970Y003607D01*
X013986Y003547D01*
X013998Y003485D01*
X014006Y003424D01*
X014010Y003361D01*
X014010Y003299D01*
X014006Y003236D01*
X013998Y003175D01*
X013986Y003113D01*
X013970Y003053D01*
X013951Y002993D01*
X013927Y002935D01*
X013901Y002879D01*
X013870Y002825D01*
X013836Y002772D01*
X013799Y002722D01*
X013759Y002674D01*
X013716Y002629D01*
X013670Y002586D01*
X013622Y002547D01*
X013571Y002511D01*
X013518Y002478D01*
X013463Y002448D01*
X013406Y002422D01*
X013348Y002400D01*
X013288Y002382D01*
X013228Y002367D01*
X013166Y002356D01*
X013104Y002349D01*
X013042Y002346D01*
X012979Y002347D01*
X012917Y002352D01*
X012855Y002361D01*
X012794Y002374D01*
X012734Y002390D01*
X012675Y002411D01*
X012617Y002435D01*
X012561Y002463D01*
X012507Y002494D01*
X012455Y002528D01*
X012406Y002566D01*
X012358Y002607D01*
X012314Y002651D01*
X012272Y002697D01*
X012234Y002747D01*
X012198Y002798D01*
X012166Y002852D01*
X012138Y002907D01*
X012112Y002964D01*
X012091Y003023D01*
X012074Y003083D01*
X012060Y003144D01*
X012050Y003205D01*
X012044Y003268D01*
X012042Y003330D01*
X027003Y026952D02*
X027005Y027014D01*
X027011Y027077D01*
X027021Y027138D01*
X027035Y027199D01*
X027052Y027259D01*
X027073Y027318D01*
X027099Y027375D01*
X027127Y027430D01*
X027159Y027484D01*
X027195Y027535D01*
X027233Y027585D01*
X027275Y027631D01*
X027319Y027675D01*
X027367Y027716D01*
X027416Y027754D01*
X027468Y027788D01*
X027522Y027819D01*
X027578Y027847D01*
X027636Y027871D01*
X027695Y027892D01*
X027755Y027908D01*
X027816Y027921D01*
X027878Y027930D01*
X027940Y027935D01*
X028003Y027936D01*
X028065Y027933D01*
X028127Y027926D01*
X028189Y027915D01*
X028249Y027900D01*
X028309Y027882D01*
X028367Y027860D01*
X028424Y027834D01*
X028479Y027804D01*
X028532Y027771D01*
X028583Y027735D01*
X028631Y027696D01*
X028677Y027653D01*
X028720Y027608D01*
X028760Y027560D01*
X028797Y027510D01*
X028831Y027457D01*
X028862Y027403D01*
X028888Y027347D01*
X028912Y027289D01*
X028931Y027229D01*
X028947Y027169D01*
X028959Y027107D01*
X028967Y027046D01*
X028971Y026983D01*
X028971Y026921D01*
X028967Y026858D01*
X028959Y026797D01*
X028947Y026735D01*
X028931Y026675D01*
X028912Y026615D01*
X028888Y026557D01*
X028862Y026501D01*
X028831Y026447D01*
X028797Y026394D01*
X028760Y026344D01*
X028720Y026296D01*
X028677Y026251D01*
X028631Y026208D01*
X028583Y026169D01*
X028532Y026133D01*
X028479Y026100D01*
X028424Y026070D01*
X028367Y026044D01*
X028309Y026022D01*
X028249Y026004D01*
X028189Y025989D01*
X028127Y025978D01*
X028065Y025971D01*
X028003Y025968D01*
X027940Y025969D01*
X027878Y025974D01*
X027816Y025983D01*
X027755Y025996D01*
X027695Y026012D01*
X027636Y026033D01*
X027578Y026057D01*
X027522Y026085D01*
X027468Y026116D01*
X027416Y026150D01*
X027367Y026188D01*
X027319Y026229D01*
X027275Y026273D01*
X027233Y026319D01*
X027195Y026369D01*
X027159Y026420D01*
X027127Y026474D01*
X027099Y026529D01*
X027073Y026586D01*
X027052Y026645D01*
X027035Y026705D01*
X027021Y026766D01*
X027011Y026827D01*
X027005Y026890D01*
X027003Y026952D01*
D11*
X020180Y014448D02*
X020027Y014294D01*
X019874Y014371D02*
X019797Y014448D01*
X019643Y014448D01*
X019567Y014371D01*
X019567Y014294D01*
X019643Y014218D01*
X019797Y014218D01*
X019874Y014141D01*
X019874Y014064D01*
X019797Y013987D01*
X019643Y013987D01*
X019567Y014064D01*
X019413Y014064D02*
X019413Y014448D01*
X019106Y014448D02*
X019106Y014064D01*
X019183Y013987D01*
X019336Y013987D01*
X019413Y014064D01*
X019720Y013911D02*
X019720Y014525D01*
X020027Y013987D02*
X020334Y013987D01*
X020180Y013987D02*
X020180Y014448D01*
D12*
X019267Y016067D02*
X017667Y016067D01*
X017650Y016069D01*
X017633Y016073D01*
X017617Y016080D01*
X017603Y016090D01*
X017590Y016103D01*
X017580Y016117D01*
X017573Y016133D01*
X017569Y016150D01*
X017567Y016167D01*
X017567Y016767D01*
X017569Y016784D01*
X017573Y016801D01*
X017580Y016817D01*
X017590Y016831D01*
X017603Y016844D01*
X017617Y016854D01*
X017633Y016861D01*
X017650Y016865D01*
X017667Y016867D01*
X019267Y016867D01*
X019284Y016865D01*
X019301Y016861D01*
X019317Y016854D01*
X019331Y016844D01*
X019344Y016831D01*
X019354Y016817D01*
X019361Y016801D01*
X019365Y016784D01*
X019367Y016767D01*
X019367Y016167D01*
X019365Y016150D01*
X019361Y016133D01*
X019354Y016117D01*
X019344Y016103D01*
X019331Y016090D01*
X019317Y016080D01*
X019301Y016073D01*
X019284Y016069D01*
X019267Y016067D01*
X018867Y016217D02*
X018467Y016467D01*
X018467Y016217D01*
X018467Y016467D02*
X018467Y016717D01*
X018467Y016467D02*
X018217Y016467D01*
X018467Y016467D02*
X018867Y016717D01*
X018867Y016217D01*
X019067Y016467D02*
X018467Y016467D01*
X020317Y017467D02*
X022617Y017467D01*
X022617Y024467D01*
X021867Y024467D01*
X021865Y024428D01*
X021859Y024389D01*
X021850Y024351D01*
X021837Y024314D01*
X021820Y024278D01*
X021800Y024245D01*
X021776Y024213D01*
X021750Y024184D01*
X021721Y024158D01*
X021689Y024134D01*
X021656Y024114D01*
X021620Y024097D01*
X021583Y024084D01*
X021545Y024075D01*
X021506Y024069D01*
X021467Y024067D01*
X021428Y024069D01*
X021389Y024075D01*
X021351Y024084D01*
X021314Y024097D01*
X021278Y024114D01*
X021245Y024134D01*
X021213Y024158D01*
X021184Y024184D01*
X021158Y024213D01*
X021134Y024245D01*
X021114Y024278D01*
X021097Y024314D01*
X021084Y024351D01*
X021075Y024389D01*
X021069Y024428D01*
X021067Y024467D01*
X020317Y024467D01*
X020317Y017467D01*
X023017Y016117D02*
X023017Y015967D01*
X023067Y015917D01*
X023067Y014017D01*
X023017Y013967D01*
X023017Y013817D01*
X023019Y013800D01*
X023023Y013783D01*
X023030Y013767D01*
X023040Y013753D01*
X023053Y013740D01*
X023067Y013730D01*
X023083Y013723D01*
X023100Y013719D01*
X023117Y013717D01*
X023817Y013717D01*
X023834Y013719D01*
X023851Y013723D01*
X023867Y013730D01*
X023881Y013740D01*
X023894Y013753D01*
X023904Y013767D01*
X023911Y013783D01*
X023915Y013800D01*
X023917Y013817D01*
X023917Y013967D01*
X023867Y014017D01*
X023867Y015917D01*
X023917Y015967D01*
X023917Y016117D01*
X023915Y016134D01*
X023911Y016151D01*
X023904Y016167D01*
X023894Y016181D01*
X023881Y016194D01*
X023867Y016204D01*
X023851Y016211D01*
X023834Y016215D01*
X023817Y016217D01*
X023117Y016217D01*
X023100Y016215D01*
X023083Y016211D01*
X023067Y016204D01*
X023053Y016194D01*
X023040Y016181D01*
X023030Y016167D01*
X023023Y016151D01*
X023019Y016134D01*
X023017Y016117D01*
X025017Y016967D02*
X025017Y017117D01*
X025019Y017134D01*
X025023Y017151D01*
X025030Y017167D01*
X025040Y017181D01*
X025053Y017194D01*
X025067Y017204D01*
X025083Y017211D01*
X025100Y017215D01*
X025117Y017217D01*
X025817Y017217D01*
X025834Y017215D01*
X025851Y017211D01*
X025867Y017204D01*
X025881Y017194D01*
X025894Y017181D01*
X025904Y017167D01*
X025911Y017151D01*
X025915Y017134D01*
X025917Y017117D01*
X025917Y016967D01*
X025867Y016917D01*
X025867Y015017D01*
X025917Y014967D01*
X025917Y014817D01*
X025915Y014800D01*
X025911Y014783D01*
X025904Y014767D01*
X025894Y014753D01*
X025881Y014740D01*
X025867Y014730D01*
X025851Y014723D01*
X025834Y014719D01*
X025817Y014717D01*
X025117Y014717D01*
X025100Y014719D01*
X025083Y014723D01*
X025067Y014730D01*
X025053Y014740D01*
X025040Y014753D01*
X025030Y014767D01*
X025023Y014783D01*
X025019Y014800D01*
X025017Y014817D01*
X025017Y014967D01*
X025067Y015017D01*
X025067Y016917D01*
X025017Y016967D01*
X025067Y018217D02*
X024367Y018217D01*
X024350Y018219D01*
X024333Y018223D01*
X024317Y018230D01*
X024303Y018240D01*
X024290Y018253D01*
X024280Y018267D01*
X024273Y018283D01*
X024269Y018300D01*
X024267Y018317D01*
X024267Y018467D01*
X024317Y018517D01*
X024317Y020417D01*
X024267Y020467D01*
X024267Y020617D01*
X024269Y020634D01*
X024273Y020651D01*
X024280Y020667D01*
X024290Y020681D01*
X024303Y020694D01*
X024317Y020704D01*
X024333Y020711D01*
X024350Y020715D01*
X024367Y020717D01*
X025067Y020717D01*
X025084Y020715D01*
X025101Y020711D01*
X025117Y020704D01*
X025131Y020694D01*
X025144Y020681D01*
X025154Y020667D01*
X025161Y020651D01*
X025165Y020634D01*
X025167Y020617D01*
X025167Y020467D01*
X025117Y020417D01*
X025117Y018517D01*
X025167Y018467D01*
X025167Y018317D01*
X025165Y018300D01*
X025161Y018283D01*
X025154Y018267D01*
X025144Y018253D01*
X025131Y018240D01*
X025117Y018230D01*
X025101Y018223D01*
X025084Y018219D01*
X025067Y018217D01*
X026717Y022617D02*
X028067Y022617D01*
X028567Y022617D02*
X029217Y022617D01*
X029317Y022717D01*
X029317Y022967D01*
X029317Y023717D01*
X029167Y023567D02*
X029167Y022967D01*
X029317Y022967D01*
X028567Y023817D02*
X028267Y023817D01*
X028267Y024117D01*
X028117Y024117D01*
X027967Y024267D01*
X027967Y024567D01*
X027667Y024567D01*
X027667Y024267D01*
X027517Y024117D01*
X027367Y024117D01*
X027067Y024117D01*
X027067Y023817D01*
X027367Y023817D01*
X027517Y023817D01*
X027667Y023667D01*
X027667Y023367D01*
X027967Y023367D01*
X027967Y023667D01*
X028117Y023817D01*
X028267Y023817D01*
X028267Y024117D02*
X028567Y024117D01*
X028567Y023817D01*
X029167Y024367D02*
X029167Y024967D01*
X029317Y024967D01*
X029317Y025217D01*
X029217Y025317D01*
X028567Y025317D01*
X028067Y025317D02*
X026717Y025317D01*
X026617Y025217D01*
X026617Y022717D01*
X026717Y022617D01*
X026317Y023217D02*
X025617Y023217D01*
X025600Y023219D01*
X025583Y023223D01*
X025567Y023230D01*
X025553Y023240D01*
X025540Y023253D01*
X025530Y023267D01*
X025523Y023283D01*
X025519Y023300D01*
X025517Y023317D01*
X025517Y023467D01*
X025567Y023517D01*
X025567Y025417D01*
X025517Y025467D01*
X025517Y025617D01*
X025417Y025617D02*
X025417Y025467D01*
X025367Y025417D01*
X025367Y023517D01*
X025417Y023467D01*
X025417Y023317D01*
X025415Y023300D01*
X025411Y023283D01*
X025404Y023267D01*
X025394Y023253D01*
X025381Y023240D01*
X025367Y023230D01*
X025351Y023223D01*
X025334Y023219D01*
X025317Y023217D01*
X024617Y023217D01*
X024600Y023219D01*
X024583Y023223D01*
X024567Y023230D01*
X024553Y023240D01*
X024540Y023253D01*
X024530Y023267D01*
X024523Y023283D01*
X024519Y023300D01*
X024517Y023317D01*
X024517Y023467D01*
X024567Y023517D01*
X024567Y025417D01*
X024517Y025467D01*
X024517Y025617D01*
X024519Y025634D01*
X024523Y025651D01*
X024530Y025667D01*
X024540Y025681D01*
X024553Y025694D01*
X024567Y025704D01*
X024583Y025711D01*
X024600Y025715D01*
X024617Y025717D01*
X025317Y025717D01*
X025334Y025715D01*
X025351Y025711D01*
X025367Y025704D01*
X025381Y025694D01*
X025394Y025681D01*
X025404Y025667D01*
X025411Y025651D01*
X025415Y025634D01*
X025417Y025617D01*
X025517Y025617D02*
X025519Y025634D01*
X025523Y025651D01*
X025530Y025667D01*
X025540Y025681D01*
X025553Y025694D01*
X025567Y025704D01*
X025583Y025711D01*
X025600Y025715D01*
X025617Y025717D01*
X026317Y025717D01*
X026334Y025715D01*
X026351Y025711D01*
X026367Y025704D01*
X026381Y025694D01*
X026394Y025681D01*
X026404Y025667D01*
X026411Y025651D01*
X026415Y025634D01*
X026417Y025617D01*
X026417Y025467D01*
X026367Y025417D01*
X026367Y023517D01*
X026417Y023467D01*
X026417Y023317D01*
X026415Y023300D01*
X026411Y023283D01*
X026404Y023267D01*
X026394Y023253D01*
X026381Y023240D01*
X026367Y023230D01*
X026351Y023223D01*
X026334Y023219D01*
X026317Y023217D01*
X027367Y023817D02*
X027367Y024117D01*
X029317Y024217D02*
X029317Y024967D01*
X026467Y027617D02*
X026217Y027367D01*
X025717Y027367D01*
X025467Y027617D01*
X025217Y027367D01*
X024717Y027367D01*
X024467Y027617D01*
X024217Y027367D01*
X023717Y027367D01*
X023467Y027617D01*
X023217Y027367D01*
X022717Y027367D01*
X022467Y027617D01*
X022217Y027367D01*
X021717Y027367D01*
X021467Y027617D01*
X021217Y027367D01*
X020717Y027367D01*
X020467Y027617D01*
X020217Y027367D01*
X019717Y027367D01*
X019467Y027617D01*
X019467Y028117D01*
X019717Y028367D01*
X020217Y028367D01*
X020467Y028117D01*
X020717Y028367D01*
X021217Y028367D01*
X021467Y028117D01*
X021717Y028367D01*
X022217Y028367D01*
X022467Y028117D01*
X022717Y028367D01*
X023217Y028367D01*
X023467Y028117D01*
X023717Y028367D01*
X024217Y028367D01*
X024467Y028117D01*
X024717Y028367D01*
X025217Y028367D01*
X025467Y028117D01*
X025717Y028367D01*
X026217Y028367D01*
X026467Y028117D01*
X026467Y027617D01*
X022717Y026817D02*
X022717Y026117D01*
X022715Y026100D01*
X022711Y026083D01*
X022704Y026067D01*
X022694Y026053D01*
X022681Y026040D01*
X022667Y026030D01*
X022651Y026023D01*
X022634Y026019D01*
X022617Y026017D01*
X022467Y026017D01*
X022417Y026067D01*
X020517Y026067D01*
X020467Y026017D01*
X020317Y026017D01*
X020317Y025917D02*
X020467Y025917D01*
X020517Y025867D01*
X022417Y025867D01*
X022467Y025917D01*
X022617Y025917D01*
X022634Y025915D01*
X022651Y025911D01*
X022667Y025904D01*
X022681Y025894D01*
X022694Y025881D01*
X022704Y025867D01*
X022711Y025851D01*
X022715Y025834D01*
X022717Y025817D01*
X022717Y025117D01*
X022715Y025100D01*
X022711Y025083D01*
X022704Y025067D01*
X022694Y025053D01*
X022681Y025040D01*
X022667Y025030D01*
X022651Y025023D01*
X022634Y025019D01*
X022617Y025017D01*
X022467Y025017D01*
X022417Y025067D01*
X020517Y025067D01*
X020467Y025017D01*
X020317Y025017D01*
X020300Y025019D01*
X020283Y025023D01*
X020267Y025030D01*
X020253Y025040D01*
X020240Y025053D01*
X020230Y025067D01*
X020223Y025083D01*
X020219Y025100D01*
X020217Y025117D01*
X020217Y025817D01*
X020219Y025834D01*
X020223Y025851D01*
X020230Y025867D01*
X020240Y025881D01*
X020253Y025894D01*
X020267Y025904D01*
X020283Y025911D01*
X020300Y025915D01*
X020317Y025917D01*
X020317Y026017D02*
X020300Y026019D01*
X020283Y026023D01*
X020267Y026030D01*
X020253Y026040D01*
X020240Y026053D01*
X020230Y026067D01*
X020223Y026083D01*
X020219Y026100D01*
X020217Y026117D01*
X020217Y026817D01*
X020219Y026834D01*
X020223Y026851D01*
X020230Y026867D01*
X020240Y026881D01*
X020253Y026894D01*
X020267Y026904D01*
X020283Y026911D01*
X020300Y026915D01*
X020317Y026917D01*
X020467Y026917D01*
X020517Y026867D01*
X022417Y026867D01*
X022467Y026917D01*
X022617Y026917D01*
X022634Y026915D01*
X022651Y026911D01*
X022667Y026904D01*
X022681Y026894D01*
X022694Y026881D01*
X022704Y026867D01*
X022711Y026851D01*
X022715Y026834D01*
X022717Y026817D01*
X018967Y027617D02*
X018717Y027367D01*
X018217Y027367D01*
X017967Y027617D01*
X017717Y027367D01*
X017217Y027367D01*
X016967Y027617D01*
X016717Y027367D01*
X016217Y027367D01*
X015967Y027617D01*
X015717Y027367D01*
X015217Y027367D01*
X014967Y027617D01*
X014717Y027367D01*
X014217Y027367D01*
X013967Y027617D01*
X013717Y027367D01*
X013217Y027367D01*
X012967Y027617D01*
X012717Y027367D01*
X012217Y027367D01*
X011967Y027617D01*
X011717Y027367D01*
X011217Y027367D01*
X010967Y027617D01*
X010967Y028117D01*
X011217Y028367D01*
X011717Y028367D01*
X011967Y028117D01*
X012217Y028367D01*
X012717Y028367D01*
X012967Y028117D01*
X013217Y028367D01*
X013717Y028367D01*
X013967Y028117D01*
X014217Y028367D01*
X014717Y028367D01*
X014967Y028117D01*
X015217Y028367D01*
X015717Y028367D01*
X015967Y028117D01*
X016217Y028367D01*
X016717Y028367D01*
X016967Y028117D01*
X017217Y028367D01*
X017717Y028367D01*
X017967Y028117D01*
X018217Y028367D01*
X018717Y028367D01*
X018967Y028117D01*
X018967Y027617D01*
X016217Y026317D02*
X016217Y025617D01*
X016215Y025600D01*
X016211Y025583D01*
X016204Y025567D01*
X016194Y025553D01*
X016181Y025540D01*
X016167Y025530D01*
X016151Y025523D01*
X016134Y025519D01*
X016117Y025517D01*
X015967Y025517D01*
X015917Y025567D01*
X014017Y025567D01*
X013967Y025517D01*
X013817Y025517D01*
X013800Y025519D01*
X013783Y025523D01*
X013767Y025530D01*
X013753Y025540D01*
X013740Y025553D01*
X013730Y025567D01*
X013723Y025583D01*
X013719Y025600D01*
X013717Y025617D01*
X013717Y026317D01*
X013719Y026334D01*
X013723Y026351D01*
X013730Y026367D01*
X013740Y026381D01*
X013753Y026394D01*
X013767Y026404D01*
X013783Y026411D01*
X013800Y026415D01*
X013817Y026417D01*
X013967Y026417D01*
X014017Y026367D01*
X015917Y026367D01*
X015967Y026417D01*
X016117Y026417D01*
X016134Y026415D01*
X016151Y026411D01*
X016167Y026404D01*
X016181Y026394D01*
X016194Y026381D01*
X016204Y026367D01*
X016211Y026351D01*
X016215Y026334D01*
X016217Y026317D01*
X014417Y025367D02*
X014417Y024567D01*
X014415Y024550D01*
X014411Y024533D01*
X014404Y024517D01*
X014394Y024503D01*
X014381Y024490D01*
X014367Y024480D01*
X014351Y024473D01*
X014334Y024469D01*
X014317Y024467D01*
X012617Y024467D01*
X012600Y024469D01*
X012583Y024473D01*
X012567Y024480D01*
X012553Y024490D01*
X012540Y024503D01*
X012530Y024517D01*
X012523Y024533D01*
X012519Y024550D01*
X012517Y024567D01*
X012517Y025367D01*
X012519Y025384D01*
X012523Y025401D01*
X012530Y025417D01*
X012540Y025431D01*
X012553Y025444D01*
X012567Y025454D01*
X012583Y025461D01*
X012600Y025465D01*
X012617Y025467D01*
X014317Y025467D01*
X014334Y025465D01*
X014351Y025461D01*
X014367Y025454D01*
X014381Y025444D01*
X014394Y025431D01*
X014404Y025417D01*
X014411Y025401D01*
X014415Y025384D01*
X014417Y025367D01*
X013617Y024967D02*
X013567Y024967D01*
X013367Y024967D02*
X013317Y024967D01*
X012217Y023967D02*
X012467Y023717D01*
X012467Y023217D01*
X012217Y022967D01*
X012467Y022717D01*
X012467Y022217D01*
X012217Y021967D01*
X012467Y021717D01*
X012467Y021217D01*
X012217Y020967D01*
X012467Y020717D01*
X012467Y020217D01*
X012217Y019967D01*
X012467Y019717D01*
X012467Y019217D01*
X012217Y018967D01*
X012467Y018717D01*
X012467Y018217D01*
X012217Y017967D01*
X012467Y017717D01*
X012467Y017217D01*
X012217Y016967D01*
X012467Y016717D01*
X012467Y016217D01*
X012217Y015967D01*
X011717Y015967D01*
X011467Y016217D01*
X011467Y016717D01*
X011717Y016967D01*
X011467Y017217D01*
X011467Y017717D01*
X011717Y017967D01*
X011467Y018217D01*
X011467Y018717D01*
X011717Y018967D01*
X011467Y019217D01*
X011467Y019717D01*
X011717Y019967D01*
X011467Y020217D01*
X011467Y020717D01*
X011717Y020967D01*
X011467Y021217D01*
X011467Y021717D01*
X011717Y021967D01*
X011467Y022217D01*
X011467Y022717D01*
X011717Y022967D01*
X011467Y023217D01*
X011467Y023717D01*
X011717Y023967D01*
X012217Y023967D01*
X011917Y011567D02*
X011917Y011467D01*
X012017Y011467D01*
X011917Y011467D02*
X011917Y011367D01*
X011917Y011467D02*
X011817Y011467D01*
X011467Y010967D02*
X011469Y011030D01*
X011475Y011092D01*
X011485Y011154D01*
X011498Y011216D01*
X011516Y011276D01*
X011537Y011335D01*
X011562Y011393D01*
X011591Y011449D01*
X011623Y011503D01*
X011658Y011555D01*
X011696Y011604D01*
X011738Y011652D01*
X011782Y011696D01*
X011830Y011738D01*
X011879Y011776D01*
X011931Y011811D01*
X011985Y011843D01*
X012041Y011872D01*
X012099Y011897D01*
X012158Y011918D01*
X012218Y011936D01*
X012280Y011949D01*
X012342Y011959D01*
X012404Y011965D01*
X012467Y011967D01*
X012530Y011965D01*
X012592Y011959D01*
X012654Y011949D01*
X012716Y011936D01*
X012776Y011918D01*
X012835Y011897D01*
X012893Y011872D01*
X012949Y011843D01*
X013003Y011811D01*
X013055Y011776D01*
X013104Y011738D01*
X013152Y011696D01*
X013196Y011652D01*
X013238Y011604D01*
X013276Y011555D01*
X013311Y011503D01*
X013343Y011449D01*
X013372Y011393D01*
X013397Y011335D01*
X013418Y011276D01*
X013436Y011216D01*
X013449Y011154D01*
X013459Y011092D01*
X013465Y011030D01*
X013467Y010967D01*
X013465Y010904D01*
X013459Y010842D01*
X013449Y010780D01*
X013436Y010718D01*
X013418Y010658D01*
X013397Y010599D01*
X013372Y010541D01*
X013343Y010485D01*
X013311Y010431D01*
X013276Y010379D01*
X013238Y010330D01*
X013196Y010282D01*
X013152Y010238D01*
X013104Y010196D01*
X013055Y010158D01*
X013003Y010123D01*
X012949Y010091D01*
X012893Y010062D01*
X012835Y010037D01*
X012776Y010016D01*
X012716Y009998D01*
X012654Y009985D01*
X012592Y009975D01*
X012530Y009969D01*
X012467Y009967D01*
X012404Y009969D01*
X012342Y009975D01*
X012280Y009985D01*
X012218Y009998D01*
X012158Y010016D01*
X012099Y010037D01*
X012041Y010062D01*
X011985Y010091D01*
X011931Y010123D01*
X011879Y010158D01*
X011830Y010196D01*
X011782Y010238D01*
X011738Y010282D01*
X011696Y010330D01*
X011658Y010379D01*
X011623Y010431D01*
X011591Y010485D01*
X011562Y010541D01*
X011537Y010599D01*
X011516Y010658D01*
X011498Y010718D01*
X011485Y010780D01*
X011475Y010842D01*
X011469Y010904D01*
X011467Y010967D01*
X014467Y008817D02*
X014467Y007117D01*
X014469Y007100D01*
X014473Y007083D01*
X014480Y007067D01*
X014490Y007053D01*
X014503Y007040D01*
X014517Y007030D01*
X014533Y007023D01*
X014550Y007019D01*
X014567Y007017D01*
X015367Y007017D01*
X015384Y007019D01*
X015401Y007023D01*
X015417Y007030D01*
X015431Y007040D01*
X015444Y007053D01*
X015454Y007067D01*
X015461Y007083D01*
X015465Y007100D01*
X015467Y007117D01*
X015467Y008817D01*
X015465Y008834D01*
X015461Y008851D01*
X015454Y008867D01*
X015444Y008881D01*
X015431Y008894D01*
X015417Y008904D01*
X015401Y008911D01*
X015384Y008915D01*
X015367Y008917D01*
X014567Y008917D01*
X014550Y008915D01*
X014533Y008911D01*
X014517Y008904D01*
X014503Y008894D01*
X014490Y008881D01*
X014480Y008867D01*
X014473Y008851D01*
X014469Y008834D01*
X014467Y008817D01*
X014967Y008117D02*
X014967Y008067D01*
X014967Y007867D02*
X014967Y007817D01*
X015367Y005917D02*
X014567Y005917D01*
X014550Y005915D01*
X014533Y005911D01*
X014517Y005904D01*
X014503Y005894D01*
X014490Y005881D01*
X014480Y005867D01*
X014473Y005851D01*
X014469Y005834D01*
X014467Y005817D01*
X014467Y004117D01*
X014469Y004100D01*
X014473Y004083D01*
X014480Y004067D01*
X014490Y004053D01*
X014503Y004040D01*
X014517Y004030D01*
X014533Y004023D01*
X014550Y004019D01*
X014567Y004017D01*
X015367Y004017D01*
X015384Y004019D01*
X015401Y004023D01*
X015417Y004030D01*
X015431Y004040D01*
X015444Y004053D01*
X015454Y004067D01*
X015461Y004083D01*
X015465Y004100D01*
X015467Y004117D01*
X015467Y005817D01*
X015465Y005834D01*
X015461Y005851D01*
X015454Y005867D01*
X015444Y005881D01*
X015431Y005894D01*
X015417Y005904D01*
X015401Y005911D01*
X015384Y005915D01*
X015367Y005917D01*
X014967Y005117D02*
X014967Y005067D01*
X014967Y004867D02*
X014967Y004817D01*
X023967Y002717D02*
X023967Y002217D01*
X024217Y001967D01*
X024717Y001967D01*
X024967Y002217D01*
X025217Y001967D01*
X025717Y001967D01*
X025967Y002217D01*
X026217Y001967D01*
X026717Y001967D01*
X026967Y002217D01*
X027217Y001967D01*
X027717Y001967D01*
X027967Y002217D01*
X028217Y001967D01*
X028717Y001967D01*
X028967Y002217D01*
X029217Y001967D01*
X029717Y001967D01*
X029967Y002217D01*
X029967Y002717D01*
X029717Y002967D01*
X029217Y002967D01*
X028967Y002717D01*
X028717Y002967D01*
X028217Y002967D01*
X027967Y002717D01*
X027717Y002967D01*
X027217Y002967D01*
X026967Y002717D01*
X026717Y002967D01*
X026217Y002967D01*
X025967Y002717D01*
X025717Y002967D01*
X025217Y002967D01*
X024967Y002717D01*
X024717Y002967D01*
X024217Y002967D01*
X023967Y002717D01*
D13*
X024432Y001718D02*
X024282Y001568D01*
X024507Y001568D01*
X024582Y001493D01*
X024582Y001417D01*
X024507Y001342D01*
X024357Y001342D01*
X024282Y001417D01*
X024282Y001568D01*
X024432Y001718D02*
X024582Y001793D01*
X028611Y001718D02*
X028611Y001643D01*
X028686Y001568D01*
X028836Y001568D01*
X028911Y001493D01*
X028911Y001417D01*
X028836Y001342D01*
X028686Y001342D01*
X028611Y001417D01*
X028611Y001718D02*
X028686Y001793D01*
X028836Y001793D01*
X028911Y001718D01*
X029072Y001793D02*
X029072Y001493D01*
X029222Y001342D01*
X029372Y001493D01*
X029372Y001793D01*
X029532Y001643D02*
X029682Y001793D01*
X029682Y001342D01*
X029532Y001342D02*
X029832Y001342D01*
X029582Y003142D02*
X029282Y003142D01*
X029432Y003142D02*
X029432Y003593D01*
X029282Y003443D01*
X024542Y013772D02*
X024092Y013772D01*
X024092Y013997D01*
X024167Y014072D01*
X024317Y014072D01*
X024392Y013997D01*
X024392Y013772D01*
X024392Y013922D02*
X024542Y014072D01*
X024542Y014232D02*
X024542Y014532D01*
X024542Y014382D02*
X024092Y014382D01*
X024242Y014232D01*
X024392Y015792D02*
X024392Y016018D01*
X024467Y016093D01*
X024617Y016093D01*
X024692Y016018D01*
X024692Y015792D01*
X024842Y015792D02*
X024392Y015792D01*
X024692Y015943D02*
X024842Y016093D01*
X024842Y016253D02*
X024767Y016253D01*
X024467Y016553D01*
X024392Y016553D01*
X024392Y016253D01*
X022360Y016642D02*
X022060Y016642D01*
X022210Y016642D02*
X022210Y017093D01*
X022060Y016943D01*
X021900Y017018D02*
X021825Y017093D01*
X021674Y017093D01*
X021599Y017018D01*
X021599Y016717D01*
X021674Y016642D01*
X021825Y016642D01*
X021900Y016717D01*
X021443Y016642D02*
X021292Y016642D01*
X021367Y016642D02*
X021367Y017093D01*
X021292Y017093D02*
X021443Y017093D01*
X023842Y018772D02*
X023842Y018997D01*
X023917Y019072D01*
X024067Y019072D01*
X024142Y018997D01*
X024142Y018772D01*
X024142Y018922D02*
X024292Y019072D01*
X024217Y019232D02*
X024292Y019307D01*
X024292Y019457D01*
X024217Y019532D01*
X024142Y019532D01*
X024067Y019457D01*
X024067Y019232D01*
X024217Y019232D01*
X024067Y019232D02*
X023917Y019382D01*
X023842Y019532D01*
X023842Y018772D02*
X024292Y018772D01*
X026742Y017853D02*
X027192Y017853D01*
X027192Y017703D02*
X027192Y018003D01*
X026892Y017703D02*
X026742Y017853D01*
X026742Y017543D02*
X026742Y017242D01*
X026742Y017393D02*
X027192Y017393D01*
X027567Y017013D02*
X027567Y016855D01*
X028117Y016792D02*
X028117Y015143D01*
X027567Y015080D02*
X027567Y014922D01*
X027567Y015855D02*
X027567Y016080D01*
X028117Y015142D02*
X028069Y015107D01*
X028019Y015074D01*
X027967Y015043D01*
X027913Y015016D01*
X027858Y014992D01*
X027801Y014972D01*
X027744Y014954D01*
X027686Y014940D01*
X027627Y014929D01*
X027567Y014922D01*
X027505Y014918D01*
X027442Y014917D01*
X027380Y014921D01*
X027318Y014928D01*
X027257Y014938D01*
X027196Y014953D01*
X027136Y014971D01*
X027077Y014992D01*
X027020Y015017D01*
X026965Y015045D01*
X026911Y015076D01*
X026859Y015111D01*
X026809Y015149D01*
X026762Y015189D01*
X026717Y015233D01*
X026674Y015278D01*
X026635Y015327D01*
X026598Y015377D01*
X026565Y015430D01*
X026534Y015484D01*
X026507Y015541D01*
X026484Y015598D01*
X026464Y015657D01*
X026464Y016277D02*
X026484Y016337D01*
X026508Y016396D01*
X026536Y016453D01*
X026567Y016508D01*
X026602Y016562D01*
X026639Y016613D01*
X026680Y016662D01*
X026724Y016708D01*
X026770Y016752D01*
X026819Y016793D01*
X026870Y016831D01*
X026923Y016865D01*
X026979Y016897D01*
X027036Y016924D01*
X027095Y016949D01*
X027155Y016969D01*
X027216Y016987D01*
X027278Y017000D01*
X027341Y017009D01*
X027404Y017015D01*
X027468Y017017D01*
X027532Y017015D01*
X027595Y017009D01*
X027658Y017000D01*
X027720Y016986D01*
X027781Y016969D01*
X027841Y016948D01*
X027900Y016924D01*
X027957Y016896D01*
X028013Y016864D01*
X028066Y016829D01*
X028117Y016792D01*
X029712Y016787D02*
X029787Y016862D01*
X029862Y016862D01*
X029937Y016787D01*
X030012Y016862D01*
X030087Y016862D01*
X030162Y016787D01*
X030162Y016637D01*
X030087Y016562D01*
X029937Y016712D02*
X029937Y016787D01*
X029712Y016787D02*
X029712Y016637D01*
X029787Y016562D01*
X029787Y016402D02*
X029937Y016402D01*
X030012Y016327D01*
X030012Y016102D01*
X030162Y016102D02*
X029712Y016102D01*
X029712Y016327D01*
X029787Y016402D01*
X029712Y015941D02*
X029712Y015791D01*
X029712Y015866D02*
X030087Y015866D01*
X030162Y015791D01*
X030162Y015716D01*
X030087Y015641D01*
X029042Y022842D02*
X029042Y023069D01*
X029042Y022956D02*
X028702Y022956D01*
X028816Y022842D01*
X029492Y024242D02*
X029492Y024468D01*
X029567Y024543D01*
X029717Y024543D01*
X029792Y024468D01*
X029792Y024242D01*
X029942Y024242D02*
X029492Y024242D01*
X029792Y024393D02*
X029942Y024543D01*
X029867Y024703D02*
X029942Y024778D01*
X029942Y024928D01*
X029867Y025003D01*
X029792Y025003D01*
X029717Y024928D01*
X029717Y024853D01*
X029717Y024928D02*
X029642Y025003D01*
X029567Y025003D01*
X029492Y024928D01*
X029492Y024778D01*
X029567Y024703D01*
X029042Y024999D02*
X029042Y025113D01*
X028986Y025169D01*
X028929Y025169D01*
X028872Y025113D01*
X028872Y025056D01*
X028872Y025113D02*
X028816Y025169D01*
X028759Y025169D01*
X028702Y025113D01*
X028702Y024999D01*
X028759Y024942D01*
X028986Y024942D02*
X029042Y024999D01*
X027042Y025272D02*
X026592Y025272D01*
X026592Y025497D01*
X026667Y025572D01*
X026817Y025572D01*
X026892Y025497D01*
X026892Y025272D01*
X026892Y025422D02*
X027042Y025572D01*
X026967Y025732D02*
X027042Y025807D01*
X027042Y025957D01*
X026967Y026032D01*
X026817Y026032D01*
X026742Y025957D01*
X026742Y025882D01*
X026817Y025732D01*
X026592Y025732D01*
X026592Y026032D01*
X025842Y028542D02*
X025842Y028617D01*
X026143Y028918D01*
X026143Y028993D01*
X025842Y028993D01*
X023478Y025043D02*
X023328Y025043D01*
X023253Y024968D01*
X023253Y024893D01*
X023328Y024818D01*
X023553Y024818D01*
X023553Y024968D02*
X023478Y025043D01*
X023553Y024968D02*
X023553Y024667D01*
X023478Y024592D01*
X023328Y024592D01*
X023253Y024667D01*
X023093Y024592D02*
X022943Y024743D01*
X023018Y024743D02*
X022792Y024743D01*
X022792Y024592D02*
X022792Y025043D01*
X023018Y025043D01*
X023093Y024968D01*
X023093Y024818D01*
X023018Y024743D01*
X023892Y023978D02*
X024117Y023753D01*
X024117Y024053D01*
X024342Y023978D02*
X023892Y023978D01*
X023967Y023593D02*
X024117Y023593D01*
X024192Y023518D01*
X024192Y023292D01*
X024342Y023292D02*
X023892Y023292D01*
X023892Y023518D01*
X023967Y023593D01*
X024192Y023443D02*
X024342Y023593D01*
X020043Y026742D02*
X019742Y026742D01*
X019893Y026742D02*
X019893Y027193D01*
X019742Y027043D01*
X018957Y026343D02*
X019032Y026268D01*
X019032Y026193D01*
X018957Y026118D01*
X018807Y026118D01*
X018732Y026193D01*
X018732Y026268D01*
X018807Y026343D01*
X018957Y026343D01*
X018957Y026118D02*
X019032Y026043D01*
X019032Y025967D01*
X018957Y025892D01*
X018807Y025892D01*
X018732Y025967D01*
X018732Y026043D01*
X018807Y026118D01*
X018572Y026118D02*
X018497Y026043D01*
X018272Y026043D01*
X018422Y026043D02*
X018572Y025892D01*
X018572Y026118D02*
X018572Y026268D01*
X018497Y026343D01*
X018272Y026343D01*
X018272Y025892D01*
X016032Y025268D02*
X015957Y025343D01*
X015807Y025343D01*
X015732Y025268D01*
X015572Y025268D02*
X015572Y025118D01*
X015497Y025043D01*
X015272Y025043D01*
X015422Y025043D02*
X015572Y024892D01*
X015732Y024892D02*
X016032Y025193D01*
X016032Y025268D01*
X016032Y024892D02*
X015732Y024892D01*
X015572Y025268D02*
X015497Y025343D01*
X015272Y025343D01*
X015272Y024892D01*
X014082Y024343D02*
X014082Y023892D01*
X013932Y023892D02*
X014232Y023892D01*
X013932Y024193D02*
X014082Y024343D01*
X013772Y024268D02*
X013697Y024343D01*
X013547Y024343D01*
X013472Y024268D01*
X013472Y023967D01*
X013547Y023892D01*
X013697Y023892D01*
X013772Y023967D01*
X013092Y023832D02*
X013092Y023532D01*
X012792Y023832D01*
X012717Y023832D01*
X012642Y023757D01*
X012642Y023607D01*
X012717Y023532D01*
X012642Y023372D02*
X012942Y023372D01*
X013092Y023222D01*
X012942Y023072D01*
X012642Y023072D01*
X012717Y022911D02*
X012642Y022836D01*
X012642Y022686D01*
X012717Y022611D01*
X012792Y022611D01*
X012867Y022686D01*
X012867Y022836D01*
X012942Y022911D01*
X013017Y022911D01*
X013092Y022836D01*
X013092Y022686D01*
X013017Y022611D01*
X011292Y023232D02*
X011292Y023532D01*
X011292Y023382D02*
X010842Y023382D01*
X010992Y023232D01*
X010647Y024462D02*
X010722Y024537D01*
X010722Y024613D01*
X010647Y024688D01*
X010272Y024688D01*
X010272Y024613D02*
X010272Y024763D01*
X010272Y024923D02*
X010272Y025148D01*
X010347Y025223D01*
X010497Y025223D01*
X010572Y025148D01*
X010572Y024923D01*
X010722Y024923D02*
X010272Y024923D01*
X010347Y025383D02*
X010272Y025458D01*
X010272Y025608D01*
X010347Y025683D01*
X010422Y025683D01*
X010722Y025383D01*
X010722Y025683D01*
X011292Y026742D02*
X011593Y026742D01*
X011443Y026742D02*
X011443Y027193D01*
X011292Y027043D01*
X011218Y028542D02*
X011067Y028542D01*
X010992Y028617D01*
X011067Y028768D02*
X010992Y028843D01*
X010992Y028918D01*
X011067Y028993D01*
X011218Y028993D01*
X011293Y028918D01*
X011218Y028768D02*
X011293Y028693D01*
X011293Y028617D01*
X011218Y028542D01*
X011218Y028768D02*
X011067Y028768D01*
X011453Y028693D02*
X011603Y028542D01*
X011753Y028693D01*
X011753Y028993D01*
X011913Y028918D02*
X011988Y028993D01*
X012138Y028993D01*
X012213Y028918D01*
X012213Y028843D01*
X012138Y028768D01*
X012213Y028693D01*
X012213Y028617D01*
X012138Y028542D01*
X011988Y028542D01*
X011913Y028617D01*
X012063Y028768D02*
X012138Y028768D01*
X011453Y028693D02*
X011453Y028993D01*
X018242Y028918D02*
X018242Y028843D01*
X018317Y028768D01*
X018468Y028768D01*
X018543Y028693D01*
X018543Y028617D01*
X018468Y028542D01*
X018317Y028542D01*
X018242Y028617D01*
X018242Y028693D01*
X018317Y028768D01*
X018468Y028768D02*
X018543Y028843D01*
X018543Y028918D01*
X018468Y028993D01*
X018317Y028993D01*
X018242Y028918D01*
X019492Y028918D02*
X019492Y028843D01*
X019567Y028768D01*
X019718Y028768D01*
X019793Y028693D01*
X019793Y028617D01*
X019718Y028542D01*
X019567Y028542D01*
X019492Y028617D01*
X019492Y028918D02*
X019567Y028993D01*
X019718Y028993D01*
X019793Y028918D01*
X019953Y028993D02*
X019953Y028693D01*
X020103Y028542D01*
X020253Y028693D01*
X020253Y028993D01*
X020413Y028768D02*
X020713Y028768D01*
X020638Y028993D02*
X020638Y028542D01*
X020413Y028768D02*
X020638Y028993D01*
X018203Y017443D02*
X018053Y017293D01*
X017893Y017368D02*
X017818Y017443D01*
X017592Y017443D01*
X017592Y016992D01*
X017818Y016992D01*
X017893Y017067D01*
X017893Y017368D01*
X018203Y017443D02*
X018203Y016992D01*
X018053Y016992D02*
X018353Y016992D01*
X013092Y016507D02*
X013092Y016357D01*
X013017Y016282D01*
X012942Y016282D01*
X012867Y016357D01*
X012867Y016507D01*
X012942Y016582D01*
X013017Y016582D01*
X013092Y016507D01*
X012867Y016507D02*
X012792Y016582D01*
X012717Y016582D01*
X012642Y016507D01*
X012642Y016357D01*
X012717Y016282D01*
X012792Y016282D01*
X012867Y016357D01*
X011222Y014183D02*
X011222Y013883D01*
X011222Y014033D02*
X010772Y014033D01*
X010922Y013883D01*
X010847Y013723D02*
X010997Y013723D01*
X011072Y013648D01*
X011072Y013423D01*
X011222Y013423D02*
X010772Y013423D01*
X010772Y013648D01*
X010847Y013723D01*
X010772Y013263D02*
X010772Y013113D01*
X010772Y013188D02*
X011147Y013188D01*
X011222Y013113D01*
X011222Y013037D01*
X011147Y012962D01*
X013442Y011868D02*
X013442Y011567D01*
X013517Y011492D01*
X013668Y011492D01*
X013743Y011567D01*
X013903Y011718D02*
X014203Y011718D01*
X014128Y011943D02*
X014128Y011492D01*
X013903Y011718D02*
X014128Y011943D01*
X013743Y011868D02*
X013668Y011943D01*
X013517Y011943D01*
X013442Y011868D01*
X012767Y008967D02*
X011617Y008917D01*
X011517Y008817D01*
X011517Y005117D01*
X011617Y005017D01*
X012767Y004967D01*
X015592Y005047D02*
X015667Y004972D01*
X015967Y004972D01*
X016042Y005047D01*
X016042Y005197D01*
X015967Y005272D01*
X015967Y005432D02*
X016042Y005507D01*
X016042Y005657D01*
X015967Y005732D01*
X015892Y005732D01*
X015817Y005657D01*
X015817Y005582D01*
X015817Y005657D02*
X015742Y005732D01*
X015667Y005732D01*
X015592Y005657D01*
X015592Y005507D01*
X015667Y005432D01*
X015667Y005272D02*
X015592Y005197D01*
X015592Y005047D01*
X015667Y007972D02*
X015967Y007972D01*
X016042Y008047D01*
X016042Y008197D01*
X015967Y008272D01*
X016042Y008432D02*
X015742Y008732D01*
X015667Y008732D01*
X015592Y008657D01*
X015592Y008507D01*
X015667Y008432D01*
X015667Y008272D02*
X015592Y008197D01*
X015592Y008047D01*
X015667Y007972D01*
X016042Y008432D02*
X016042Y008732D01*
X011657Y008737D02*
X011659Y008757D01*
X011665Y008775D01*
X011674Y008793D01*
X011686Y008808D01*
X011701Y008820D01*
X011719Y008829D01*
X011737Y008835D01*
X011757Y008837D01*
X011777Y008835D01*
X011795Y008829D01*
X011813Y008820D01*
X011828Y008808D01*
X011840Y008793D01*
X011849Y008775D01*
X011855Y008757D01*
X011857Y008737D01*
X011855Y008717D01*
X011849Y008699D01*
X011840Y008681D01*
X011828Y008666D01*
X011813Y008654D01*
X011795Y008645D01*
X011777Y008639D01*
X011757Y008637D01*
X011737Y008639D01*
X011719Y008645D01*
X011701Y008654D01*
X011686Y008666D01*
X011674Y008681D01*
X011665Y008699D01*
X011659Y008717D01*
X011657Y008737D01*
X011312Y008832D02*
X011312Y008532D01*
X011012Y008832D01*
X010937Y008832D01*
X010862Y008757D01*
X010862Y008607D01*
X010937Y008532D01*
X010937Y008372D02*
X010862Y008297D01*
X010862Y008147D01*
X010937Y008072D01*
X011237Y008072D01*
X011312Y008147D01*
X011312Y008297D01*
X011237Y008372D01*
X011312Y007915D02*
X011312Y007765D01*
X011312Y007840D02*
X010862Y007840D01*
X010862Y007765D02*
X010862Y007915D01*
D14*
X011717Y012967D02*
X011467Y013217D01*
X011467Y013717D01*
X011717Y013967D01*
X011467Y014217D01*
X011467Y014717D01*
X011717Y014967D01*
X012217Y014967D01*
X012467Y014717D01*
X012467Y014217D01*
X012217Y013967D01*
X012467Y013717D01*
X012467Y013217D01*
X012217Y012967D01*
X011717Y012967D01*
X011717Y024467D02*
X011217Y024467D01*
X010967Y024717D01*
X010967Y025217D01*
X011217Y025467D01*
X010967Y025717D01*
X010967Y026217D01*
X011217Y026467D01*
X011717Y026467D01*
X011967Y026217D01*
X011967Y025717D01*
X011717Y025467D01*
X011967Y025217D01*
X011967Y024717D01*
X011717Y024467D01*
X025644Y019967D02*
X025646Y020063D01*
X025652Y020159D01*
X025662Y020254D01*
X025676Y020349D01*
X025693Y020444D01*
X025715Y020537D01*
X025741Y020630D01*
X025770Y020721D01*
X025803Y020811D01*
X025840Y020900D01*
X025880Y020987D01*
X025924Y021073D01*
X025971Y021156D01*
X026022Y021238D01*
X026076Y021317D01*
X026134Y021394D01*
X026194Y021468D01*
X026258Y021540D01*
X026324Y021610D01*
X026394Y021676D01*
X026466Y021740D01*
X026540Y021800D01*
X026617Y021858D01*
X026696Y021912D01*
X026778Y021963D01*
X026861Y022010D01*
X026947Y022054D01*
X027034Y022094D01*
X027123Y022131D01*
X027213Y022164D01*
X027304Y022193D01*
X027397Y022219D01*
X027490Y022241D01*
X027585Y022258D01*
X027680Y022272D01*
X027775Y022282D01*
X027871Y022288D01*
X027967Y022290D01*
X028063Y022288D01*
X028159Y022282D01*
X028254Y022272D01*
X028349Y022258D01*
X028444Y022241D01*
X028537Y022219D01*
X028630Y022193D01*
X028721Y022164D01*
X028811Y022131D01*
X028900Y022094D01*
X028987Y022054D01*
X029073Y022010D01*
X029156Y021963D01*
X029238Y021912D01*
X029317Y021858D01*
X029394Y021800D01*
X029468Y021740D01*
X029540Y021676D01*
X029610Y021610D01*
X029676Y021540D01*
X029740Y021468D01*
X029800Y021394D01*
X029858Y021317D01*
X029912Y021238D01*
X029963Y021156D01*
X030010Y021073D01*
X030054Y020987D01*
X030094Y020900D01*
X030131Y020811D01*
X030164Y020721D01*
X030193Y020630D01*
X030219Y020537D01*
X030241Y020444D01*
X030258Y020349D01*
X030272Y020254D01*
X030282Y020159D01*
X030288Y020063D01*
X030290Y019967D01*
X030288Y019871D01*
X030282Y019775D01*
X030272Y019680D01*
X030258Y019585D01*
X030241Y019490D01*
X030219Y019397D01*
X030193Y019304D01*
X030164Y019213D01*
X030131Y019123D01*
X030094Y019034D01*
X030054Y018947D01*
X030010Y018861D01*
X029963Y018778D01*
X029912Y018696D01*
X029858Y018617D01*
X029800Y018540D01*
X029740Y018466D01*
X029676Y018394D01*
X029610Y018324D01*
X029540Y018258D01*
X029468Y018194D01*
X029394Y018134D01*
X029317Y018076D01*
X029238Y018022D01*
X029156Y017971D01*
X029073Y017924D01*
X028987Y017880D01*
X028900Y017840D01*
X028811Y017803D01*
X028721Y017770D01*
X028630Y017741D01*
X028537Y017715D01*
X028444Y017693D01*
X028349Y017676D01*
X028254Y017662D01*
X028159Y017652D01*
X028063Y017646D01*
X027967Y017644D01*
X027871Y017646D01*
X027775Y017652D01*
X027680Y017662D01*
X027585Y017676D01*
X027490Y017693D01*
X027397Y017715D01*
X027304Y017741D01*
X027213Y017770D01*
X027123Y017803D01*
X027034Y017840D01*
X026947Y017880D01*
X026861Y017924D01*
X026778Y017971D01*
X026696Y018022D01*
X026617Y018076D01*
X026540Y018134D01*
X026466Y018194D01*
X026394Y018258D01*
X026324Y018324D01*
X026258Y018394D01*
X026194Y018466D01*
X026134Y018540D01*
X026076Y018617D01*
X026022Y018696D01*
X025971Y018778D01*
X025924Y018861D01*
X025880Y018947D01*
X025840Y019034D01*
X025803Y019123D01*
X025770Y019213D01*
X025741Y019304D01*
X025715Y019397D01*
X025693Y019490D01*
X025676Y019585D01*
X025662Y019680D01*
X025652Y019775D01*
X025646Y019871D01*
X025644Y019967D01*
X028717Y016967D02*
X028467Y016717D01*
X028467Y016217D01*
X028717Y015967D01*
X028467Y015717D01*
X028467Y015217D01*
X028717Y014967D01*
X028467Y014717D01*
X028467Y014217D01*
X028717Y013967D01*
X029217Y013967D01*
X029467Y014217D01*
X029467Y014717D01*
X029217Y014967D01*
X029467Y015217D01*
X029467Y015717D01*
X029217Y015967D01*
X029467Y016217D01*
X029467Y016717D01*
X029217Y016967D01*
X028717Y016967D01*
D15*
X022887Y025467D03*
X022887Y026467D03*
X020047Y026467D03*
X020047Y025467D03*
X016387Y025967D03*
X013547Y025967D03*
D16*
X028977Y020830D02*
X029197Y020830D01*
X029197Y020903D02*
X029197Y020756D01*
X029161Y020682D02*
X029087Y020682D01*
X029087Y020609D01*
X029014Y020682D02*
X028977Y020646D01*
X028977Y020572D01*
X029014Y020535D01*
X029161Y020535D01*
X029197Y020572D01*
X029197Y020646D01*
X029161Y020682D01*
X029051Y020756D02*
X028977Y020830D01*
X029014Y020461D02*
X028977Y020425D01*
X028977Y020351D01*
X029014Y020314D01*
X029051Y020314D01*
X029087Y020351D01*
X029087Y020425D01*
X029124Y020461D01*
X029161Y020461D01*
X029197Y020425D01*
X029197Y020351D01*
X029161Y020314D01*
D17*
X025967Y023047D03*
X024967Y023047D03*
X024717Y020887D03*
X024717Y018047D03*
X025467Y017387D03*
X023467Y016387D03*
X025467Y014547D03*
X023467Y013547D03*
X024967Y025887D03*
X025967Y025887D03*
D18*
X027067Y024767D02*
X027167Y024667D01*
X027817Y024907D02*
X027817Y025057D01*
X026897Y023967D02*
X026747Y023967D01*
X027167Y023217D02*
X027067Y023117D01*
X027817Y023027D02*
X027817Y022877D01*
D19*
X017817Y016467D03*
D20*
X017442Y016467D03*
X019492Y016467D03*
D21*
X015267Y008067D02*
X014967Y008067D01*
X014667Y008067D01*
X014667Y007867D02*
X014967Y007867D01*
X015267Y007867D01*
X015267Y005067D02*
X014967Y005067D01*
X014667Y005067D01*
X014667Y004867D02*
X014967Y004867D01*
X015267Y004867D01*
X013567Y024667D02*
X013567Y024967D01*
X013567Y025267D01*
X013367Y025267D02*
X013367Y024967D01*
X013367Y024667D01*
D22*
X013067Y006967D03*
D23*
X012817Y005242D03*
X012817Y008692D03*
D24*
X012817Y007467D03*
X012817Y006467D03*
M02*
