G75*
%MOIN*%
%OFA0B0*%
%FSLAX24Y24*%
%IPPOS*%
%LPD*%
%AMOC8*
5,1,8,0,0,1.08239X$1,22.5*
%
%ADD10C,0.2049*%
%ADD11C,0.0820*%
%ADD12C,0.0600*%
%ADD13C,0.0680*%
%ADD14OC8,0.0600*%
%ADD15C,0.0780*%
%ADD16OC8,0.0710*%
%ADD17C,0.0710*%
D10*
X013026Y003330D03*
X027987Y026952D03*
D11*
X028967Y016467D03*
X028967Y015467D03*
X028967Y014467D03*
X021967Y013967D03*
X021967Y014967D03*
X021967Y012967D03*
X021967Y011967D03*
X021967Y010967D03*
X021967Y009967D03*
X021967Y008967D03*
X021967Y007967D03*
X021967Y006967D03*
X021967Y005967D03*
X021967Y004967D03*
X021967Y003967D03*
X021467Y002967D03*
X020467Y002967D03*
X019467Y002967D03*
X018467Y002967D03*
X017467Y002967D03*
X016467Y002967D03*
X015967Y003967D03*
X015967Y004967D03*
X015967Y005967D03*
X015967Y006967D03*
X015967Y007967D03*
X015967Y008967D03*
X015967Y009967D03*
X015967Y010967D03*
X015967Y011967D03*
X015967Y012967D03*
X015967Y013967D03*
X015967Y014967D03*
X017092Y012530D03*
X017092Y011530D03*
X017092Y008405D03*
X017092Y007405D03*
X011967Y013467D03*
X011967Y014467D03*
X011467Y024967D03*
X011467Y025967D03*
D12*
X019707Y023967D02*
X020227Y023967D01*
X020227Y022967D02*
X019707Y022967D01*
X019707Y021967D02*
X020227Y021967D01*
X020227Y020967D02*
X019707Y020967D01*
X019707Y019967D02*
X020227Y019967D01*
X020227Y018967D02*
X019707Y018967D01*
X019707Y017967D02*
X020227Y017967D01*
X020227Y016467D02*
X019707Y016467D01*
X017227Y016467D02*
X016707Y016467D01*
X022707Y017967D02*
X023227Y017967D01*
X023227Y018967D02*
X022707Y018967D01*
X022707Y019967D02*
X023227Y019967D01*
X023227Y020967D02*
X022707Y020967D01*
X022707Y021967D02*
X023227Y021967D01*
X023227Y022967D02*
X022707Y022967D01*
X022707Y023967D02*
X023227Y023967D01*
D13*
X012517Y005967D02*
X011917Y005967D01*
X011917Y006967D02*
X012517Y006967D01*
X012517Y007967D02*
X011917Y007967D01*
X011667Y016467D02*
X012267Y016467D01*
X012267Y017467D02*
X011667Y017467D01*
X011667Y018467D02*
X012267Y018467D01*
X012267Y019467D02*
X011667Y019467D01*
X011667Y020467D02*
X012267Y020467D01*
X012267Y021467D02*
X011667Y021467D01*
X011667Y022467D02*
X012267Y022467D01*
X012267Y023467D02*
X011667Y023467D01*
X011467Y027567D02*
X011467Y028167D01*
X012467Y028167D02*
X012467Y027567D01*
X013467Y027567D02*
X013467Y028167D01*
X014467Y028167D02*
X014467Y027567D01*
X015467Y027567D02*
X015467Y028167D01*
X016467Y028167D02*
X016467Y027567D01*
X017467Y027567D02*
X017467Y028167D01*
X018467Y028167D02*
X018467Y027567D01*
X019967Y027567D02*
X019967Y028167D01*
X020967Y028167D02*
X020967Y027567D01*
X021967Y027567D02*
X021967Y028167D01*
X022967Y028167D02*
X022967Y027567D01*
X023967Y027567D02*
X023967Y028167D01*
X024967Y028167D02*
X024967Y027567D01*
X025967Y027567D02*
X025967Y028167D01*
X025467Y002767D02*
X025467Y002167D01*
X024467Y002167D02*
X024467Y002767D01*
X026467Y002767D02*
X026467Y002167D01*
X027467Y002167D02*
X027467Y002767D01*
X028467Y002767D02*
X028467Y002167D01*
X029467Y002167D02*
X029467Y002767D01*
D14*
X023467Y012967D03*
X025467Y013967D03*
X027467Y015467D03*
X026717Y015967D03*
X027467Y016467D03*
X025467Y017967D03*
X024717Y017467D03*
X023467Y016967D03*
X024717Y021467D03*
X024967Y022467D03*
X025967Y022467D03*
X026967Y023967D03*
X027967Y022967D03*
X027967Y024967D03*
X025967Y026467D03*
X024967Y026467D03*
X023467Y026467D03*
X023467Y025467D03*
X019467Y025467D03*
X019467Y026467D03*
X016967Y025967D03*
X013967Y024967D03*
X012967Y024967D03*
X012967Y025967D03*
X014967Y008467D03*
X014967Y007467D03*
X014967Y005467D03*
X014967Y004467D03*
D15*
X019967Y008967D03*
X019717Y011717D03*
X027967Y018688D03*
X027967Y021247D03*
D16*
X012967Y010967D03*
D17*
X011967Y010967D03*
M02*
