%
M48
M72
T01C0.0320
T02C0.0354
T03C0.0394
T04C0.0400
T05C0.1969
%
T01
X11967Y10967
X12967Y10967
X14967Y8467
X14967Y7467
X14967Y5467
X14967Y4467
X23467Y12967
X25467Y13967
X27467Y15467
X26717Y15967
X27467Y16467
X25467Y17967
X24717Y17467
X23467Y16967
X22967Y17967
X22967Y18967
X22967Y19967
X22967Y20967
X22967Y21967
X22967Y22967
X22967Y23967
X23467Y25467
X23467Y26467
X24967Y26467
X25967Y26467
X27967Y24967
X26967Y23967
X27967Y22967
X25967Y22467
X24967Y22467
X24717Y21467
X19967Y20967
X19967Y21967
X19967Y22967
X19967Y23967
X19467Y25467
X19467Y26467
X16967Y25967
X13967Y24967
X12967Y24967
X12967Y25967
X19967Y19967
X19967Y18967
X19967Y17967
X19967Y16467
X16967Y16467
T02
X27967Y18688
X27967Y21247
T03
X19717Y11717
X19967Y8967
T04
X21967Y8967
X21967Y7967
X21967Y6967
X21967Y5967
X21967Y4967
X21967Y3967
X21467Y2967
X20467Y2967
X19467Y2967
X18467Y2967
X17467Y2967
X16467Y2967
X15967Y3967
X15967Y4967
X15967Y5967
X15967Y6967
X15967Y7967
X15967Y8967
X15967Y9967
X15967Y10967
X15967Y11967
X15967Y12967
X15967Y13967
X15967Y14967
X17092Y12530
X17092Y11530
X17092Y8405
X17092Y7405
X21967Y9967
X21967Y10967
X21967Y11967
X21967Y12967
X21967Y13967
X21967Y14967
X28967Y14467
X28967Y15467
X28967Y16467
X25967Y27867
X24967Y27867
X23967Y27867
X22967Y27867
X21967Y27867
X20967Y27867
X19967Y27867
X18467Y27867
X17467Y27867
X16467Y27867
X15467Y27867
X14467Y27867
X13467Y27867
X12467Y27867
X11467Y27867
X11467Y25967
X11467Y24967
X11967Y23467
X11967Y22467
X11967Y21467
X11967Y20467
X11967Y19467
X11967Y18467
X11967Y17467
X11967Y16467
X11967Y14467
X11967Y13467
X12217Y7967
X12217Y6967
X12217Y5967
X24467Y2467
X25467Y2467
X26467Y2467
X27467Y2467
X28467Y2467
X29467Y2467
T05
X13026Y3330
X27987Y26952
M30
